<?xml version="1.0" encoding="UTF-8"?>
<svg width="485px" height="420px" viewBox="0 0 485 420" version="1.1" xmlns="http://www.w3.org/2000/svg" xmlns:xlink="http://www.w3.org/1999/xlink">
    <!-- Generator: sketchtool 53.2 (72643) - https://sketchapp.com -->
    <title>699C9043-0777-4C6B-B91E-7B381EDE3AD5</title>
    <desc>Created with sketchtool.</desc>
    <g id="Page-1" stroke="none" stroke-width="1" fill="none" fill-rule="evenodd">
        <g id="08_become_a_host" transform="translate(-261.000000, -2567.000000)" fill-rule="nonzero">
            <g id="why" transform="translate(181.000000, 1435.000000)">
                <g id="1" transform="translate(80.000000, 1132.000000)">
                    <g id="undraw_intense_feeling_ft9s">
                        <path d="M241.807444,4.62570116 C215.549084,11.4423708 192.387563,29.6414411 169.365993,53.5165119 C185.122314,67.867809 186.54757,92.1585296 172.577571,108.251602 C158.607572,124.344674 134.342344,126.364999 117.899925,112.804069 C90.8580405,145.08592 61.3308572,179.212974 25.2928852,207.418762 C-66.4656239,279.235396 122.229758,410.211864 241.807444,410.211864 C361.385131,410.211864 458.322034,319.418304 458.322034,207.418762 C458.322034,95.4192202 357.040859,-25.2888732 241.807444,4.62570116 Z" id="Path" fill="#F2F2F2"></path>
                        <circle id="Oval" fill="#FD566F" cx="141.987288" cy="81.4194915" r="28.029661"></circle>
                        <ellipse id="Oval" fill="#F2F2F2" cx="409.826271" cy="366.610169" rx="74.3008475" ry="9.78813559"></ellipse>
                        <ellipse id="Oval" fill="#F2F2F2" cx="146.436441" cy="410.211864" rx="74.3008475" ry="9.78813559"></ellipse>
                        <path d="M413.830508,333.602592 C413.830508,333.602592 417.820835,347.265023 420.481052,350.79083 C423.141268,354.316637 425.358119,360.046036 424.028008,360.927506 C422.697898,361.808976 420.037681,372.38633 423.584638,372.82706 C427.131595,373.267789 435.112248,361.368236 435.555624,357.401719 C435.998999,353.435203 437.772475,339.332032 437.772475,339.332032 C437.772475,339.332032 440.876061,326.991759 435.999015,326.110309 C431.121968,325.22886 423.584664,324.788136 423.584664,324.788136 L413.830508,333.602592 Z" id="Path" fill="#2F2E41"></path>
                        <path d="M394.809175,347.923729 C394.809175,347.923729 389.068618,363.050846 387.743878,363.940677 C386.419138,364.830509 381.56174,372.838983 391.276527,372.838983 C400.991314,372.838983 406.290284,370.169493 406.290284,370.169493 L409.381356,366.610167 C409.381356,366.610167 409.381356,357.26695 408.498193,355.932203 C407.615029,354.597456 408.498193,347.923729 408.498193,347.923729 L394.809175,347.923729 Z" id="Path" fill="#2F2E41"></path>
                        <path d="M354.988613,209.337466 C354.988613,209.337466 347.867278,257.470229 354.09845,273.068772 C360.329622,288.667315 366.560789,293.124082 366.560789,293.124082 L413.739639,337.245763 C413.739639,337.245763 428.427399,329.669313 427.092146,324.766903 C427.092146,324.766903 423.976563,322.984227 423.531479,321.647189 C423.086395,320.310151 417.300312,319.864513 417.300312,319.864513 C417.300312,319.864513 414.629808,316.7448 414.629808,314.962108 C414.629808,313.179417 391.485466,281.536591 383.919047,279.30822 C383.919047,279.30822 379.913291,274.40581 380.358375,273.514462 C380.803459,272.623113 379.023128,269.5034 379.023128,269.5034 L383.473963,252.122135 L411.514224,247.665399 C411.514224,247.665399 423.086395,206.663426 413.29454,203.543713 C403.502685,200.423999 354.988613,209.337466 354.988613,209.337466 Z" id="Path" fill="#2F2E41"></path>
                        <path d="M410.980032,240.254237 L411.862632,247.369671 C411.862632,247.369671 411.862632,266.047672 410.980032,267.826532 C410.097433,269.605391 409.656138,272.273676 410.980032,274.05253 C412.303927,275.831385 414.510427,280.278534 413.627832,282.057388 C412.745237,283.836243 415.393011,334.088973 411.862653,337.646687 C408.332294,341.204401 409.656158,345.651545 410.097474,346.09626 C410.538789,346.540975 409.656179,348.319835 409.656179,348.319835 C409.656179,348.319835 391.562903,351.432834 392.886803,348.319835 C394.210703,345.206835 394.210697,343.427976 395.093297,342.538546 C395.975897,341.649116 395.093297,340.314976 395.093297,340.314976 C395.093297,340.314976 396.417197,326.084114 395.093297,325.194684 C393.769398,324.305255 389.797704,281.612674 389.797704,281.167964 C389.797704,280.723254 388.473809,279.833819 388.473809,278.054959 C388.473809,276.2761 388.473809,270.494816 386.267309,269.605386 C384.06081,268.715956 384.50213,246.924956 384.50213,246.924956 L410.980032,240.254237 Z" id="Path" fill="#2F2E41"></path>
                        <path d="M379.315554,81.8644068 C379.315554,81.8644068 381.07426,95.211863 386.350448,97.8813522 C391.626636,100.550841 395.144068,101.885589 395.144068,101.885589 L390.747258,117.457634 L388.988552,130.805085 L368.763209,130.805085 L357.771186,121.906781 L361.288633,107.224582 L363.047339,104.555093 C363.047339,104.555093 365.245741,94.7669576 363.48702,91.6525527 C361.7283,88.5381478 379.315554,81.8644068 379.315554,81.8644068 Z" id="Path" fill="#FFB9B9"></path>
                        <path d="M370.95682,114.781715 L374.052953,120.563161 C374.052953,120.563161 376.264479,112.558085 379.360612,111.223904 C382.456744,109.889723 389.975925,107.666093 389.975925,105.887185 C389.975925,104.108277 389.53362,99.6610169 391.302841,99.6610169 C393.072062,99.6610169 410.321946,104.997736 412.975778,106.776639 C415.62961,108.555542 416.07191,110.33445 416.07191,110.33445 L411.206556,161.477995 C411.206556,161.477995 418.283437,185.493234 416.07191,194.83248 C413.860383,204.171727 412.091167,205.505919 406.783508,206.8401 C401.475849,208.174281 404.571986,203.727016 389.091314,208.174281 C373.610642,212.621546 363.879945,211.287365 360.341502,211.287365 C356.803059,211.287365 354.591542,213.066252 353.706932,213.511 C352.822321,213.955747 353.264626,211.287365 356.360759,207.284827 C359.456891,203.282289 358.12996,196.611394 358.12996,196.611394 C358.12996,196.611394 354.591522,185.048507 356.803044,180.601242 C359.014565,176.153977 362.110703,170.37251 359.456876,168.593622 C356.803049,166.814735 353.264606,153.472919 353.264606,153.472919 L343.533898,118.784253 L363.437619,104.997746 C363.437619,104.997746 362.553008,111.223914 365.649141,112.558095 C368.745273,113.892276 370.95682,114.781715 370.95682,114.781715 Z" id="Path" fill="#FD566F"></path>
                        <path d="M346.037842,118.347458 L343.430429,118.347458 C343.430429,118.347458 339.084746,125.856607 339.084746,131.157176 C339.084746,136.457745 341.25759,166.49433 341.25759,166.49433 L353.860072,179.745763 L356.902049,169.586309 L357.771186,147.058878 L346.037842,118.347458 Z" id="Path" fill="#FD566F"></path>
                        <path d="M352.728489,165.015257 C352.728489,165.015257 337.751172,160.949458 338.205025,167.274038 C338.658879,173.598617 340.928178,181.278444 348.189907,183.085479 C355.451636,184.892513 357.720929,174.95388 357.720929,174.95388 C357.720929,174.95388 358.628668,165.918769 352.728489,165.015257 Z" id="Path" fill="#FD566F"></path>
                        <path d="M407.72333,185.974576 C407.72333,185.974576 406.816122,206.440682 401.372881,208.665256 L414.527377,211.779661 C414.527377,211.779661 420.877825,190.423729 419.970617,189.533903 C419.06341,188.644076 407.72333,185.974576 407.72333,185.974576 Z" id="Path" fill="#FFB9B9"></path>
                        <path d="M336.050504,141.322355 L344.377498,141.322118 C344.688496,141.322109 344.986753,141.44565 345.206656,141.665565 C345.426558,141.885479 345.550094,142.183752 345.550085,142.494766 L345.54948,163.687068 C345.549457,164.478149 344.908175,165.119464 344.117137,165.119487 L336.309507,165.11971 C335.518468,165.119732 334.877223,164.478453 334.877245,163.687373 L334.87785,142.49505 C334.87788,141.847404 335.402892,141.322374 336.050504,141.322355 L336.050504,141.322355 Z" id="Path" fill="#2F2E41" transform="translate(340.213665, 153.220914) rotate(-23.597970) translate(-340.213665, -153.220914) "></path>
                        <path d="M336.050504,141.322355 L344.377498,141.322118 C344.688496,141.322109 344.986753,141.44565 345.206656,141.665565 C345.426558,141.885479 345.550094,142.183752 345.550085,142.494766 L345.54948,163.687068 C345.549457,164.478149 344.908175,165.119464 344.117137,165.119487 L336.309507,165.11971 C335.518468,165.119732 334.877223,164.478453 334.877245,163.687373 L334.87785,142.49505 C334.87788,141.847404 335.402892,141.322374 336.050504,141.322355 L336.050504,141.322355 Z" id="Path" fill="#000000" opacity="0.1" transform="translate(340.213665, 153.220914) rotate(-23.597970) translate(-340.213665, -153.220914) "></path>
                        <path d="M336.31161,142.572422 L343.571379,142.572214 C344.218999,142.572196 344.743984,143.097209 344.743966,143.744863 L344.743392,163.85547 C344.743369,164.64655 344.102087,165.287866 343.311049,165.287889 L336.570644,165.288081 C335.779605,165.288104 335.13836,164.646824 335.138382,163.855744 L335.138956,143.745137 C335.138975,143.097483 335.66399,142.57244 336.31161,142.572422 L336.31161,142.572422 Z" id="Path" fill="#2F2E41" transform="translate(339.941174, 153.930148) rotate(-23.597970) translate(-339.941174, -153.930148) "></path>
                        <ellipse id="Oval" fill="#F2F2F2" transform="translate(337.320557, 150.853885) rotate(-23.597950) translate(-337.320557, -150.853885) " cx="337.320557" cy="150.853885" rx="2.13444483" ry="2.1633956"></ellipse>
                        <path d="M411.101454,115.47371 L414.03191,111.228814 C414.03191,111.228814 424.852064,127.761567 423.950384,138.932345 C423.048704,150.103124 422.147044,150.54996 422.147044,152.337282 C422.147044,154.124604 419.892843,154.124588 422.147044,156.358763 C424.401245,158.592937 427.557116,161.720738 425.75376,163.508065 C423.950405,165.295392 422.597879,165.295372 423.048719,167.529546 C423.337052,169.152596 423.487858,170.79671 423.499559,172.444685 C423.499559,172.444685 419.667423,179.817403 418.314892,179.817403 C416.962361,179.817403 404.113446,191.658429 404.113446,190.317934 C404.113446,188.977439 405.465962,179.593988 405.465962,178.253487 C405.465962,176.912987 405.916802,172.44468 406.818482,171.10419 C407.720163,169.7637 407.720163,170.210526 406.818482,168.870031 C405.916802,167.529536 405.916802,168.870031 405.916802,167.529541 C405.916802,166.189051 406.367642,164.401719 405.015127,163.954887 C403.662611,163.508055 402.310085,163.954887 403.211787,161.720733 C404.113488,159.48658 403.211787,157.699253 402.760946,157.699253 C402.310106,157.699253 400.05591,157.252421 401.408426,155.911947 C402.760941,154.571472 398.70339,128.655246 398.70339,128.655246 C398.70339,128.655246 399.379624,122.176202 411.101454,115.47371 Z" id="Path" fill="#000000" opacity="0.1"></path>
                        <path d="M408.625893,106.779661 L416.106029,110.32054 C416.106029,110.32054 426.666221,126.697109 425.786209,137.762362 C424.906197,148.827615 424.026195,149.27022 424.026195,151.040662 C424.026195,152.811104 421.826157,152.811084 424.026195,155.024152 C426.226233,157.23722 429.306293,160.335468 427.546259,162.10591 C425.786224,163.876352 424.466203,163.876332 424.906212,166.0894 C425.187618,167.697118 425.334801,169.325703 425.34622,170.95811 C425.34622,170.95811 421.386148,192.20339 420.066122,192.20339 C418.746096,192.20339 406.425885,189.990337 406.425885,188.662511 C406.425885,187.334684 407.745911,178.039868 407.745911,176.712037 C407.745911,175.384205 408.18592,170.95811 409.065937,169.630279 C409.945954,168.302447 409.945949,168.745058 409.065937,167.417231 C408.185925,166.089405 408.18592,167.417231 408.18592,166.0894 C408.18592,164.761568 408.625928,162.991131 407.305902,162.548521 C405.985877,162.10591 404.665856,162.548521 405.545888,160.335468 C406.425921,158.122415 405.545888,156.351978 405.105885,156.351978 C404.665881,156.351978 402.465833,155.909368 403.785859,154.581557 C405.105885,153.253746 401.145812,127.582345 401.145812,127.582345 C401.145812,127.582345 397.185679,113.418814 408.625893,106.779661 Z" id="Path" fill="#FD566F"></path>
                        <path d="M341.505232,168.114519 C340.630407,168.344657 339.713081,167.933389 339.307959,167.129407 C337.213567,162.96894 331.538841,150.766033 336.828957,150.390618 C341.709261,150.044285 346.056299,159.498937 347.830863,163.964623 C348.059285,164.538399 348.029456,165.181891 347.748921,165.73238 C347.468386,166.282869 346.964003,166.687649 346.363315,166.844364 L341.505232,168.114519 Z" id="Path" fill="#FFB9B9"></path>
                        <circle id="Oval" fill="#FFB9B9" cx="367.114407" cy="77.8601695" r="16.4618644"></circle>
                        <path d="M361.416544,68.5830946 C359.384291,69.2872906 357.286711,69.7845818 355.155426,70.0674714 C353.551384,70.3188101 351.674297,70.4474991 350.546946,69.2743068 C349.440602,68.122965 349.619582,66.2024574 350.374214,64.7932966 C351.128846,63.3841358 352.337718,62.2793561 353.24458,60.9638219 C354.670852,58.8948048 355.512621,56.1518582 357.793297,55.1095594 C358.738458,54.7461953 359.741419,54.5580508 360.753459,54.5542651 C366.671584,54.1753346 372.831629,53.8339428 378.312309,56.1083004 C380.37158,56.8962469 382.196026,58.1999282 383.612288,59.8954684 C384.54,61.1439322 385.255813,62.5378356 385.730774,64.0207983 C388.709109,72.8941168 386.88265,82.6842358 380.907772,89.8728814 C378.910387,88.0655797 379.779064,83.8894735 377.251741,82.9685529 C376.422587,82.6664225 375.485263,82.8766695 374.635955,82.6375071 C371.96676,81.8858597 372.100827,77.7431447 369.878741,76.0786206 C369.393443,75.8163402 368.963659,75.4616398 368.613397,75.0343326 C368.418042,74.6245088 368.333157,74.1703867 368.36722,73.7173116 C368.350976,72.1653629 369.076873,68.2232 367.602756,67.1594402 C366.102248,66.0766342 362.858366,68.0601918 361.416544,68.5830946 Z" id="Path" fill="#2F2E41"></path>
                        <path d="M93.4915254,163.666861 C93.4915254,163.666861 89.0162023,177.156727 91.5024894,180.154474 C93.9887766,183.15222 76.5847458,171.161228 76.5847458,171.161228 L86.0326536,160.169492 L93.4915254,163.666861 Z" id="Path" fill="#A0616A"></path>
                        <circle id="Oval" fill="#2F2E41" cx="83.2584746" cy="141.038136" r="21.8008475"></circle>
                        <polygon id="Path" fill="#A0616A" points="169.127119 312.570962 157.757163 321.228814 151.330508 311.12824 162.700464 303.432203"></polygon>
                        <path d="M153.461125,378.756135 L156.375815,392.946999 L164.634074,404.201818 C164.634074,404.201818 186.97995,411.05258 171.920771,414.477964 C156.861593,417.903348 153.461135,412.031262 153.461135,412.031262 L142.773981,402.733797 L142.773981,415.456641 L135.973051,415.456641 L134.515711,397.351081 C134.515711,397.351081 133.54415,391.968338 137.916168,386.096257 L138.88773,377.288136 L153.461125,378.756135 Z" id="Path" fill="#2F2E41"></path>
                        <path d="M96.361543,202.832493 L100.27178,225.322685 C100.27178,225.322685 141.818094,220.922427 144.750774,229.234022 C147.683455,237.545618 148.661017,239.990213 148.661017,239.990213 L140.351753,242.923729 L136.441516,235.589965 C134.034403,234.737367 131.382481,234.914211 129.109814,236.078881 C125.199571,238.034549 90.98496,242.923729 88.5410577,236.567797 C86.0971555,230.211864 79.2542373,206.743804 79.2542373,206.743804 L89.5186197,198.432203 L96.361543,202.832493 Z" id="Path" fill="#A0616A"></path>
                        <path d="M96.361543,202.832493 L100.27178,225.322685 C100.27178,225.322685 141.818094,220.922427 144.750774,229.234022 C147.683455,237.545618 148.661017,239.990213 148.661017,239.990213 L140.351753,242.923729 L136.441516,235.589965 C134.034403,234.737367 131.382481,234.914211 129.109814,236.078881 C125.199571,238.034549 90.98496,242.923729 88.5410577,236.567797 C86.0971555,230.211864 79.2542373,206.743804 79.2542373,206.743804 L89.5186197,198.432203 L96.361543,202.832493 Z" id="Path" fill="#000000" opacity="0.1"></path>
                        <path d="M119.29661,268.071771 L122.701693,279.834069 L131.457625,324.922841 C131.457625,324.922841 132.430508,358.249336 133.889831,362.170102 C135.349153,366.090868 135.349153,366.580961 133.889831,368.051269 C132.430508,369.521576 129.511864,374.422513 133.889831,377.363086 C138.267797,380.303659 153.8339,383.734326 154.320339,380.30367 C154.806778,376.873013 154.806783,371.481951 154.320339,369.031472 C153.833895,366.580992 155.779661,328.353538 155.779661,328.353538 L149.942352,270.032172 L129.998319,260.720339 L119.29661,268.071771 Z" id="Path" fill="#2F2E41"></path>
                        <path d="M119.29661,268.071771 L122.701693,279.834069 L131.457625,324.922841 C131.457625,324.922841 132.430508,358.249336 133.889831,362.170102 C135.349153,366.090868 135.349153,366.580961 133.889831,368.051269 C132.430508,369.521576 129.511864,374.422513 133.889831,377.363086 C138.267797,380.303659 153.8339,383.734326 154.320339,380.30367 C154.806778,376.873013 154.806783,371.481951 154.320339,369.031472 C153.833895,366.580992 155.779661,328.353538 155.779661,328.353538 L149.942352,270.032172 L129.998319,260.720339 L119.29661,268.071771 Z" id="Path" fill="#000000" opacity="0.1"></path>
                        <path d="M140.643059,221.567797 L151.450731,242.131061 C151.450731,242.131061 213.349199,269.548742 207.945364,280.809576 C202.541528,292.07041 172.574797,313.123269 172.574797,313.123269 C172.574797,313.123269 171.101024,321.446495 166.679685,318.998507 C162.258345,316.550519 151.450731,303.820844 152.433248,302.35204 C153.415765,300.883236 156.854566,297.456022 158.32836,297.945627 C159.802154,298.435232 176.996152,285.215989 176.996152,285.215989 L147.520688,277.871968 C147.520688,277.871968 112.150138,276.892763 110.185104,260.246312 C108.220069,243.59986 110.185104,240.662257 110.185104,240.662257 L107.728814,235.27664 L127.870384,223.036601 L140.643059,221.567797 Z" id="Path" fill="#2F2E41"></path>
                        <path d="M156.005485,303.432203 L145.668649,312.771197 C145.668649,312.771197 136.808522,308.838993 131.393998,310.313569 C125.979474,311.788145 116.627119,312.771197 116.627119,312.771197 L118.103807,321.127124 L130.662463,318.813472 L120.56495,332.923735 C120.56495,332.923735 120.56495,355.042373 126.963934,355.042373 C133.362918,355.042373 131.393998,341.77119 131.393998,341.77119 L151.083173,326.533903 C151.083173,326.533903 160.927756,322.601699 161.912216,322.601699 C162.896676,322.601699 156.005485,303.432203 156.005485,303.432203 Z" id="Path" fill="#2F2E41"></path>
                        <circle id="Oval" fill="#A0616A" cx="91.2669492" cy="150.826271" r="16.4618644"></circle>
                        <path d="M75.4691701,163.709633 C75.4691701,163.709633 83.2718544,161.750671 85.7101955,163.709633 C88.1485366,165.668595 88.636213,170.076268 92.0498813,170.566007 C95.4635496,171.055746 98.389562,171.055751 98.8772281,171.545491 C99.3648943,172.03523 110.581262,185.747978 110.581262,185.747978 C110.581262,185.747978 117.408609,189.665907 118.871613,195.053054 C120.334616,200.4402 134.964658,218.560622 136.915327,220.519584 C138.865997,222.478545 124.235961,232.273365 119.359284,235.701555 C114.482607,239.129744 100.340232,240.598962 95.9512209,232.763099 C91.56221,224.927236 67.6664807,173.994197 75.4691701,163.709633 Z" id="Path" fill="#008489"></path>
                        <path d="M93.6920502,195.713842 L97.6022925,218.204042 C97.6022925,218.204042 139.148603,213.803785 142.081283,222.115383 C145.013964,230.426981 145.991525,232.87157 145.991525,232.87157 L137.682262,235.805085 L133.77202,228.471303 C131.364907,227.618706 128.712985,227.79555 126.440319,228.960218 C122.530077,230.915886 88.3154676,235.805064 85.8715655,229.449134 C83.4276634,223.093204 76.5847458,199.625152 76.5847458,199.625152 L86.8491274,191.313559 L93.6920502,195.713842 Z" id="Path" fill="#A0616A"></path>
                        <path d="M84.3791612,165.716002 C84.3791612,165.716002 96.1934602,190.739639 95.2134182,197.636912 C94.2333762,204.534184 90.8032369,199.607559 90.8032369,199.607559 C90.8032369,199.607559 86.3930556,192.710291 84.4329716,196.651575 C82.4728876,200.592859 80.0227903,206.01216 78.0627115,205.5195 C76.1026326,205.026839 65.322186,168.56983 71.2024277,165.121196 C77.0826695,161.672563 84.3791612,165.716002 84.3791612,165.716002 Z" id="Path" fill="#008489"></path>
                        <circle id="Oval" fill="#2F2E41" cx="60.1228814" cy="112.563559" r="21.8008475"></circle>
                        <path d="M41.009119,131.055285 C46.7567172,135.260209 54.1608568,136.385564 60.8750155,134.074705 C67.5891743,131.763845 72.7809952,126.303248 74.8050847,119.423488 C73.7759238,127.707856 68.2325397,134.70282 60.4663713,137.516909 C52.7002029,140.330999 44.030586,138.48615 38.0412334,132.744957 C32.0518809,127.003764 29.7602787,118.341556 32.1136942,110.338983 C31.1151323,118.371124 34.526052,126.314718 41.009119,131.055285 L41.009119,131.055285 Z" id="Path" fill="#2F2E41"></path>
                        <circle id="Oval" fill="#2F2E41" cx="77.4745763" cy="145.042373" r="16.0169492"></circle>
                        <ellipse id="Oval" fill="#2F2E41" cx="91.7118644" cy="139.258475" rx="14.2372881" ry="11.1228814"></ellipse>
                        <ellipse id="Oval" fill="#A0616A" cx="92.1567797" cy="152.605932" rx="3.11440678" ry="5.78389831"></ellipse>
                        <path d="M135.67899,235.120357 C135.67899,235.120357 144.608892,230.352821 146.266684,231.548291 C147.924475,232.74376 148.661017,236.4846 148.661017,236.4846 L138.340188,240.254237 L135.313559,235.090779 L135.67899,235.120357 Z" id="Path" fill="#2F2E41"></path>
                    </g>
                </g>
            </g>
        </g>
    </g>
</svg>