<?xml version="1.0" encoding="UTF-8"?>
<svg width="580px" height="420px" viewBox="0 0 580 420" version="1.1" xmlns="http://www.w3.org/2000/svg" xmlns:xlink="http://www.w3.org/1999/xlink">
    <!-- Generator: sketchtool 53.2 (72643) - https://sketchapp.com -->
    <title>0BFC667C-BF5C-4E86-8A5F-979288F915BD</title>
    <desc>Created with sketchtool.</desc>
    <g id="Page-1" stroke="none" stroke-width="1" fill="none" fill-rule="evenodd">
        <g id="08_become_a_host" transform="translate(-181.000000, -1553.000000)">
            <g id="why" transform="translate(181.000000, 1435.000000)">
                <g id="1" transform="translate(0.000000, 118.000000)">
                    <g id="undraw_transfer_money_rywa-2">
                        <ellipse id="Oval" fill="#F2F2F2" fill-rule="nonzero" cx="248.929188" cy="196.532067" rx="196.839378" ry="196.532067"></ellipse>
                        <ellipse id="Oval" fill="#F2F2F2" fill-rule="nonzero" cx="78.134715" cy="407.529691" rx="78.134715" ry="12.4703088"></ellipse>
                        <ellipse id="Oval" fill="#F2F2F2" fill-rule="nonzero" cx="459.291883" cy="387.577197" rx="120.708117" ry="19.4536817"></ellipse>
                        <path d="M432.590126,202.517815 C432.590126,202.517815 433.610335,205.919524 427.829148,208.98106 C422.04796,212.042596 420.347608,223.608413 427.14901,227.010121 C433.950412,230.41183 435.990824,234.834056 432.59011,237.895593 C429.189396,240.957129 423.068153,249.121263 431.22983,251.162261 C439.391507,253.203259 440.411716,257.285339 438.031226,258.986191 C435.650737,260.687042 443.472327,255.924654 443.472327,255.924654 C443.472327,255.924654 444.832607,264.08873 451.974075,262.047732 C459.115543,260.006734 479.179666,221.227216 468.977566,215.784483 C458.775466,210.34175 432.590126,202.517815 432.590126,202.517815 Z" id="Path" fill="#2F2E41" fill-rule="nonzero"></path>
                        <path d="M445.036535,235.388374 C445.036535,235.388374 448.581104,247.864528 442.378105,248.755683 C438.528717,249.359055 434.880924,250.887563 431.744387,253.211451 L443.264245,268.361045 L464.531681,268.361045 L477.823834,254.993736 C477.823834,254.993736 460.100967,241.626427 463.645541,233.606042 C467.190116,225.585657 445.036535,235.388374 445.036535,235.388374 Z" id="Path" fill="#FFB9B9" fill-rule="nonzero"></path>
                        <path d="M445.036535,235.388374 C445.036535,235.388374 448.581104,247.864528 442.378105,248.755683 C438.528717,249.359055 434.880924,250.887563 431.744387,253.211451 L443.264245,268.361045 L464.531681,268.361045 L477.823834,254.993736 C477.823834,254.993736 460.100967,241.626427 463.645541,233.606042 C467.190116,225.585657 445.036535,235.388374 445.036535,235.388374 Z" id="Path" fill="#000000" fill-rule="nonzero" opacity="0.1"></path>
                        <polygon id="Path" fill="#FFB9B9" fill-rule="nonzero" points="449.775475 390.116827 470.452424 397.170658 484.835924 398.052257 483.937089 385.707791 454.270185 377.102138"></polygon>
                        <path d="M476.822107,387.027901 C476.822107,387.027901 476.822107,399.591182 478.582686,399.591182 C480.343266,399.591182 504.111115,396.89905 511.153448,399.591182 C518.195781,402.283314 528.759262,392.412165 523.477519,387.027901 C518.195776,381.643638 509.580429,373.567242 504.2049,375.361995 C498.829372,377.156748 476.822112,381.643638 476.822112,381.643638 L476.822107,387.027901 Z" id="Path" fill="#575A89" fill-rule="nonzero"></path>
                        <path d="M410.651421,375.106888 C410.651421,375.106888 400.067127,396.650647 407.123321,398.445963 C414.179516,400.24128 422.117741,397.548305 422.999762,396.650647 C423.881783,395.752988 436.230135,392.162365 437.994157,393.957677 C439.758178,395.752988 439.758204,386.776426 439.758204,386.776426 L410.651421,375.106888 Z" id="Path" fill="#575A89" fill-rule="nonzero"></path>
                        <path d="M419.737825,346.175772 C419.737825,346.175772 402.829012,369.231985 415.288134,375.439429 C427.747257,381.646873 487.373054,381.646873 491.82276,375.439429 C496.272467,369.231985 498.052325,349.722884 491.82276,347.949325 C485.593196,346.175767 419.737825,346.175772 419.737825,346.175772 Z" id="Path" fill="#2F2E41" fill-rule="nonzero"></path>
                        <path d="M419.737825,346.175772 C419.737825,346.175772 402.829012,369.231985 415.288134,375.439429 C427.747257,381.646873 487.373054,381.646873 491.82276,375.439429 C496.272467,369.231985 498.052325,349.722884 491.82276,347.949325 C485.593196,346.175767 419.737825,346.175772 419.737825,346.175772 Z" id="Path" fill="#000000" fill-rule="nonzero" opacity="0.2"></path>
                        <ellipse id="Oval" fill="#FFB9B9" fill-rule="nonzero" cx="452.279793" cy="220.973872" rx="20.5354059" ry="20.4513064"></ellipse>
                        <path d="M419.723661,252.957722 L437.481549,249.406176 C437.481549,249.406176 441.921025,263.612355 456.127333,260.948696 C470.333641,258.285038 473.885226,249.406176 473.885226,249.406176 C473.885226,249.406176 484.539959,253.84561 485.427856,253.84561 C486.315752,253.84561 497.858377,258.285038 497.858377,260.948696 C497.858377,263.612355 484.539959,290.248937 484.539959,290.248937 L486.315747,338.194774 L420.611531,336.418999 L425.051007,289.361039 L419.723661,252.957722 Z" id="Path" fill="#008489" fill-rule="nonzero"></path>
                        <path d="M409.70639,276.342043 C409.70639,276.342043 404.363845,323.341249 407.925543,326.888361 C411.487242,330.435473 425.734024,340.190024 425.734024,340.190024 L425.734024,329.548694 L418.610633,316.247031 L425.734024,285.209814 L409.70639,276.342043 Z" id="Path" fill="#FFB9B9" fill-rule="nonzero"></path>
                        <path d="M501.865285,275.344418 C501.865285,275.344418 498.786806,323.489327 498.786806,325.256116 C498.786806,327.022905 490.870721,333.206651 488.232026,333.206651 C485.59333,333.206651 483.834197,328.789683 483.834197,328.789683 L489.991154,321.722543 L485.59333,285.503434 L501.865285,275.344418 Z" id="Path" fill="#FFB9B9" fill-rule="nonzero"></path>
                        <path d="M494.059072,343.096923 C494.059072,343.096923 534.007543,320.843811 534.895289,343.096923 C535.783034,365.350035 514.477178,374.251281 514.477178,374.251281 C514.477178,374.251281 459.437059,390.799927 457.2177,384.750904 C454.998342,378.70188 450.559624,368.910535 454.110596,368.020409 C457.661568,367.130282 462.10029,365.350035 463.875781,367.130282 C465.651272,368.910529 487.844859,353.778416 487.844859,353.778416 L494.059072,343.096923 Z" id="Path" fill="#2F2E41" fill-rule="nonzero"></path>
                        <path d="M512.884283,340.190024 C512.884283,340.190024 504.834691,343.648458 502.151493,346.242282 C499.468296,348.836106 487.841105,353.159145 487.841105,353.159145" id="Path" stroke="#000000" stroke-width="2" opacity="0.2"></path>
                        <path d="M425.245064,255.154392 L420.003847,253.396675 C420.003847,253.396675 400.78605,273.610443 406.900805,278.8836 C413.01556,284.156756 416.509701,285.914473 418.256771,287.672211 C420.003842,289.429948 428.739206,290.308789 428.739206,290.308789 L425.245064,255.154392 Z" id="Path" fill="#008489" fill-rule="nonzero"></path>
                        <path d="M490.353417,259.382423 L498.40815,261.149644 C498.40815,261.149644 504.672944,274.403812 506.462882,276.171012 C508.252821,277.938212 503.777971,277.05462 501.093061,280.589067 C498.40815,284.123513 495.723239,290.308789 490.353417,290.308789 C484.983595,290.308789 477.823834,281.472659 477.823834,281.472659 L490.353417,259.382423 Z" id="Path" fill="#008489" fill-rule="nonzero"></path>
                        <path d="M421.504231,350.944037 C421.504231,350.944037 387.667867,327.002004 376.092274,344.736846 C364.516681,362.471687 425.956382,386.413726 434.860689,389.960696 C443.764996,393.507667 451.778871,397.054632 451.778871,397.054632 C451.778871,397.054632 459.792746,377.546302 459.792746,373.999337 C459.792746,370.452372 453.559731,370.452367 451.778871,370.452367 C449.998012,370.452367 441.984137,368.678884 440.203273,366.018658 C438.422408,363.358431 421.504231,350.944037 421.504231,350.944037 Z" id="Path" fill="#2F2E41" fill-rule="nonzero"></path>
                        <path d="M402.694301,345.178147 C402.694301,345.178147 411.742176,352.220193 419.885231,353.980724 C428.028286,355.741255 430.74266,360.142518 430.74266,360.142518" id="Path" stroke="#000000" stroke-width="2" opacity="0.2"></path>
                        <path d="M415.717591,311.053737 L416.426358,348.553296 C416.475086,351.131507 418.597928,353.187817 421.180916,353.158842 L491.086756,352.374757 C493.558171,352.347039 495.586326,350.414219 495.728677,347.951032 L497.850562,311.235569 C497.925103,309.945741 497.463844,308.682261 496.575439,307.742757 C495.687034,306.803253 494.450026,306.270786 493.155807,306.270784 L420.419321,306.270784 C419.156746,306.270783 417.947204,306.777605 417.062889,307.677197 C416.178573,308.57679 415.693775,309.793577 415.717591,311.053737 Z" id="Path" fill="#575A89" fill-rule="nonzero"></path>
                        <path d="M452.890789,195.534442 C452.890789,195.534442 454.042165,199.333017 447.517701,202.751737 C440.993238,206.170458 439.074271,219.085611 446.750116,222.884187 C454.42596,226.682762 456.728711,231.620904 452.890789,235.039624 C449.052867,238.458344 442.144608,247.574923 451.355623,249.854066 C460.566639,252.133209 461.718009,256.691501 459.031463,258.590789 C456.344916,260.490076 465.172168,255.172074 465.172168,255.172074 C465.172168,255.172074 466.707334,264.288652 474.766968,262.009509 C482.826603,259.730365 490.868144,218.300812 481.883933,207.630289 C473.530186,197.708592 452.890789,195.534442 452.890789,195.534442 Z" id="Path" fill="#2F2E41" fill-rule="nonzero"></path>
                        <path d="M450.777202,192.128566 C450.778939,186.594665 467.438327,190.571031 474.580996,198.29759 C479.527114,203.648119 487.039754,211.697843 480.744393,217.372078 C474.449032,223.046313 491.535175,230.484665 496.117542,232.73989 C500.69991,234.995114 509.747484,241.891703 501.578187,246.518351 C493.408889,251.144998 493.540589,255.815398 496.615016,256.921197 C499.689442,258.026997 489.836604,255.277024 489.836604,255.277024 C489.836604,255.277024 490.832037,264.414147 482.531023,264.37039 C474.23001,264.326632 450.415077,218.989367 456.104272,206.387567 C461.394218,194.670166 450.777202,192.128566 450.777202,192.128566 Z" id="Path" fill="#2F2E41" fill-rule="nonzero"></path>
                        <path d="M454.249114,190.622789 C431.976274,189.280021 429.740933,206.065357 429.740933,206.065357 C429.894908,215.779056 445.302538,211.046002 449.581892,212.494062 C454.744699,208.775741 464.696344,201.740249 471.813472,196.719379 C466.646376,193.076767 460.559436,190.963989 454.249114,190.622789 Z" id="Path" fill="#2F2E41" fill-rule="nonzero"></path>
                        <path d="M447.772021,297.292162 C447.772021,297.292162 427.762681,204.203131 302.521589,136.674584" id="Path" stroke="#3F3D56" stroke-width="2"></path>
                        <polygon id="Path" fill="#3F3D56" fill-rule="nonzero" points="307.29565 133.68171 307.530225 134.769596 302.787754 136.069465 304.281808 141.320961 303.338559 141.662708 301.519862 135.266276"></polygon>
                        <path d="M110.887584,389.605238 L114.274844,387.078385 C114.274844,387.078385 116.516998,399.654313 114.015038,401.538528 C111.513079,403.422744 102.130721,406.563066 102.130721,410.33147 C102.130721,414.099874 80.8640463,419.124406 80.2385565,413.471802 C79.6130667,407.819199 82.115026,404.678866 82.115026,404.678866 C82.115026,404.678866 92.1228736,394.629791 93.3738533,392.745592 C94.6248329,390.861392 97.7522873,387.092988 97.7522873,387.092988 L110.887584,389.605238 Z" id="Path" fill="#2F2E41" fill-rule="nonzero"></path>
                        <path d="M61.1053541,235.281692 C61.1053541,235.281692 61.1994733,235.827745 61.362525,236.826758 C61.5131882,237.714091 61.7201771,238.967536 61.9711511,240.512607 C64.6062241,256.416361 72.2917249,303.234003 71.7709413,304.779074 C71.1435541,306.64061 66.7518439,313.466244 71.7709413,315.327785 C72.2540432,315.507716 72.7747469,316.091001 73.3331325,317.009347 C74.4108583,318.987324 75.2993341,321.060584 75.9869718,323.202086 C78.9796224,331.789955 82.179363,345.534318 84.0301248,355.052955 C84.839479,359.235241 85.391508,362.598408 85.5546342,364.360642 C85.6113458,364.767911 85.6176727,365.180498 85.5734751,365.589281 C84.9460879,368.071334 89.3377981,376.758504 91.2199649,379.240551 C93.1021318,381.722598 96.2390676,384.20465 95.6116751,386.686703 C94.9842826,389.168755 111.29637,395.994385 113.178532,391.650802 C115.060693,387.30722 115.060699,384.825162 115.688086,383.584139 C116.315473,382.343115 116.94286,373.655945 113.805924,372.414916 C110.668989,371.173887 112.551145,349.455959 109.414209,345.112377 C108.366519,343.666569 106.766652,338.770721 105.091495,332.882061 C104.432788,330.573774 103.767719,328.116532 103.115209,325.65313 C100.467652,315.557385 98.1212292,305.399591 98.1212292,305.399591 L98.7486057,232.799639 L64.2422793,228.456057 L63.3577159,230.385843 L61.594722,234.214396 L61.1053541,235.281692 Z" id="Path" fill="#2F2E41" fill-rule="nonzero"></path>
                        <path d="M59.2912971,354.350082 C59.2912971,354.350082 54.3293106,349.425817 51.84832,354.350082 C49.3673294,359.274347 46.8863335,378.35588 42.5445947,382.664602 C38.2028559,386.973324 32.6206271,408.516991 38.8231088,409.748056 C45.0255906,410.979121 51.84832,407.901453 52.4685677,404.208258 C53.0888153,400.515064 66.1139896,381.433552 66.1139896,379.586955 C66.1139896,377.740358 57.4305173,370.96949 57.4305173,370.96949 L59.2912971,354.350082 Z" id="Path" fill="#2F2E41" fill-rule="nonzero"></path>
                        <path d="M136.234888,201.231858 C136.234888,201.231858 128.13787,273.943891 126.269335,280.780059 C124.4008,287.616227 114.435236,313.717986 111.320997,318.06828 C108.206758,322.418574 88.2756469,357.842385 85.78426,359.706795 C83.292873,361.571204 78.3100886,366.542968 78.3100886,366.542968 C78.3100886,366.542968 68.9673823,375.865026 67.7216888,377.729435 C66.4759954,379.593845 55.8875903,374.000616 55.2647436,370.271792 C54.6418968,366.542968 55.8875903,360.328264 56.510437,357.842385 C57.1332838,355.356506 55.2647436,351.627682 57.1332838,349.763267 C59.001824,347.898852 68.3445356,338.5768 68.3445356,334.226511 C68.3445356,329.876222 84.5385718,304.395933 90.7670391,298.802699 C96.9955065,293.209466 95.749813,283.887408 95.749813,283.887408 L95.749813,245.977728 L61.4932162,235.41273 C61.4932162,235.41273 63.3617564,205.582152 67.7216888,205.582152 C72.0816212,205.582152 129.383568,195.638625 136.234888,201.231858 Z" id="Path" fill="#2F2E41" fill-rule="nonzero"></path>
                        <ellipse id="Oval" fill="#9F616A" fill-rule="nonzero" cx="85.6476684" cy="77.3159145" rx="20.5354059" ry="20.4513064"></ellipse>
                        <path d="M92.1088566,93.4504806 C92.1088566,93.4504806 94.5630901,102.830654 97.6308871,105.332037 C100.698684,107.833419 89.654618,118.464276 89.654618,118.464276 L68.7936179,119.714964 L65.1122625,107.833414 C65.1122625,107.833414 71.8614097,94.0758301 70.0207347,85.3210004 C68.1800596,76.5661707 92.1088566,93.4504806 92.1088566,93.4504806 Z" id="Path" fill="#9F616A" fill-rule="nonzero"></path>
                        <path d="M101.051138,103.752969 C101.051138,103.752969 95.4337609,104.370816 94.1854562,106.224361 C92.9371515,108.077905 84.199013,113.638524 77.3333263,112.402831 C70.4676396,111.167138 66.098573,109.313593 64.8502683,109.93144 C63.6019635,110.549286 61.1053541,123.52408 61.1053541,123.52408 L67.9710354,143.295185 L66.7227307,197.665729 L64.8502683,212.494062 C64.8502683,212.494062 61.1053541,207.551284 76.0850216,210.640522 C91.064689,213.72976 110.413434,208.169131 116.654979,207.551284 C122.896524,206.933438 133.507109,205.079898 134.131261,201.372813 C134.755413,197.665729 132.258804,184.073094 132.258804,184.073094 L122.272355,142.677339 L116.030826,120.434842 L101.051138,103.752969 Z" id="Path" fill="#FD566F" fill-rule="nonzero"></path>
                        <path d="M95.164076,101.094773 C95.164076,101.094773 100.407018,98.309916 102.266463,100.792742 C104.125908,103.275568 127.678831,106.9998 127.678831,108.86192 C127.678831,110.724041 132.637343,161.001206 131.397717,165.346168 C130.15809,169.691131 133.87697,174.656752 133.87697,174.656752 L138.215669,193.277929 C138.215669,193.277929 149.992133,228.658158 145.033621,229.899568 C140.075109,231.140979 135.73641,229.899568 133.87697,229.899568 C132.01753,229.899568 132.637343,206.312749 127.678831,200.105692 C122.720319,193.898635 115.902367,178.380988 114.66274,175.277462 C113.423114,172.173936 97.9277642,129.345235 98.5475723,124.379588 C99.1673804,119.413941 95.164076,101.094773 95.164076,101.094773 Z" id="Path" fill="#D0CDE1" fill-rule="nonzero"></path>
                        <path d="M69.9588413,103.752969 C69.9588413,103.752969 65.0287727,103.752969 64.4125148,104.99633 C63.7962569,106.239691 57.6336725,114.321504 55.1686356,116.186548 C52.7035987,118.051592 44.0759931,126.133394 44.0759931,127.998428 C44.0759931,129.863461 61.9474884,143.54039 61.9474884,143.54039 C61.9474884,143.54039 69.3425886,180.219417 65.6450359,192.652985 C61.9474831,205.086553 56.4011619,234.927123 58.8661935,236.792157 C61.3312252,238.65719 66.8775569,239.278868 66.8775569,236.792157 C66.8775569,234.305445 70.5751096,207.57327 73.6564045,201.978164 C76.7376993,196.383058 85.9815733,160.947387 82.2840205,151.00053 C78.5864678,141.053674 69.9588413,103.752969 69.9588413,103.752969 Z" id="Path" fill="#D0CDE1" fill-rule="nonzero"></path>
                        <path d="M151.246106,165.605701 C151.246106,165.605701 151.866687,184.69605 145.040289,194.549135 C138.213891,204.402221 133.869818,215.486936 133.869818,215.486936 C133.869818,215.486936 122.699346,212.40785 120.837603,208.712941 C118.975859,205.018033 107.184801,208.097124 107.184801,206.86549 C107.184801,205.633855 121.458184,199.475678 122.699346,198.244039 C123.940509,197.012399 128.284582,197.012404 130.766912,194.549135 C133.249242,192.085867 133.869823,186.543501 133.869823,186.543501 L136.352148,170.532233 L151.246106,165.605701 Z" id="Path" fill="#9F616A" fill-rule="nonzero"></path>
                        <path d="M99.5770166,64.152403 C101.167402,64.0084858 102.807634,63.8501272 104.213199,63.0949753 C107.362595,61.4029373 108.197736,56.5844561 105.800245,53.9382734 C105.139202,53.2649726 104.399833,52.6727031 103.597835,52.1740385 L98.8360187,48.945128 C96.7299676,47.5170564 94.5741339,46.0655776 92.1177866,45.3923614 C89.896074,44.7834621 87.5495673,44.8460313 85.2497548,44.9884444 C80.7852046,45.2648823 76.2930174,45.8359118 72.0938326,47.3715293 C67.8946478,48.9071469 63.9775414,51.4762024 61.4343177,55.1421496 C57.4025226,60.9538052 57.3471052,68.7918562 59.5676962,75.5011087 C61.7882871,82.2103612 66.0064122,88.052764 70.1626983,93.7767221 L72.3192816,83.2939023 C72.5113685,82.3602149 72.7597712,81.3368971 73.5392609,80.7843021 C75.4766306,79.4108667 77.8464896,82.2308028 80.2242426,82.2125219 C81.7520501,82.200776 83.0347454,80.9488938 83.6137386,79.540337 C84.1927318,78.1317803 84.2308515,76.5719188 84.36481,75.0556996 C84.6485362,71.8442491 85.7752815,67.3757795 88.8280685,65.6046443 C91.6727785,63.9542468 96.3794641,64.4417307 99.5770166,64.152403 Z" id="Path" fill="#2F2E41" fill-rule="nonzero"></path>
                        <path d="M99.1709845,235.630404 C99.1709845,235.630404 97.0113332,296.384516 95.7324628,298.250186 C94.4535925,300.115855 95.7324628,235.43943 95.7324628,235.43943 L99.1709845,235.630404 Z" id="Path" fill="#000000" fill-rule="nonzero" opacity="0.1"></path>
                        <path d="M123.212435,108.741093 L128.149868,108.741093 C128.149868,108.741093 149.133956,137.149645 146.665237,139.002375 C144.196518,140.855105 146.665237,145.795728 146.665237,145.795728 L151.602669,155.059383 C151.602669,155.059383 157.774459,160.617578 155.922924,161.852732 C154.071388,163.087885 151.602669,168.028503 151.602669,168.028503 C151.602669,168.028503 139.25909,166.175773 135.556009,173.586698 L127.551318,163.474747 L123.212435,108.741093 Z" id="Path" fill="#D0CDE1" fill-rule="nonzero"></path>
                        <polygon id="Rectangle" fill="#2F2E41" fill-rule="nonzero" transform="translate(122.844043, 137.213882) rotate(-22.437870) translate(-122.844043, -137.213882) " points="113.595508 120.034067 132.05952 120.051807 132.092578 154.393696 113.628566 154.375956"></polygon>
                        <ellipse id="Oval" fill="#FD566F" fill-rule="nonzero" transform="translate(121.515055, 133.314863) rotate(-22.437850) translate(-121.515055, -133.314863) " cx="121.515055" cy="133.314863" rx="3.69280388" ry="3.38582149"></ellipse>
                        <path d="M110.491856,158.581977 C110.491856,158.581977 65.6088597,196.115492 58.128362,184.229878 C50.6478644,172.344265 66.2322393,162.335325 66.2322393,162.335325 C66.2322393,162.335325 79.9464912,162.960883 95.5308608,152.951949 L111.115236,146.070805 C111.115236,146.070805 125.342539,125.68759 130.190774,133.449338 C135.039008,141.211087 121.914927,154.719767 110.491856,158.581977 Z" id="Path" fill="#9F616A" fill-rule="nonzero"></path>
                        <path d="M50.5172651,125.700713 L43.5898699,128.177771 L43.5898699,146.755727 L41.0708117,150.471314 C41.0708117,150.471314 41.7005749,157.902499 43.5898699,159.760292 C45.4791648,161.618086 49.2577387,160.998821 47.9982123,165.333678 C47.2412302,168.159826 47.0276478,171.100132 47.3684491,174.003386 C47.3684491,174.003386 58.7041973,188.246486 59.3339605,186.388687 C59.9637237,184.530888 68.7804192,161.618086 70.0399456,161.618086 C71.299472,161.618086 57.4446709,125.700713 57.4446709,125.700713 L50.5172651,125.700713 Z" id="Path" fill="#D0CDE1" fill-rule="nonzero"></path>
                        <path d="M132.19245,219.477435 C132.19245,219.477435 138.508755,213.169173 135.350608,212.85376 C132.192461,212.538347 121.196689,206.230086 119.364059,209.384214 C117.531429,212.538342 132.19245,219.477435 132.19245,219.477435 Z" id="Path" fill="#2F2E41" fill-rule="nonzero"></path>
                        <ellipse id="Oval" fill="#008489" fill-rule="nonzero" cx="254.438687" cy="96.2707838" rx="9.01554404" ry="4.48931116"></ellipse>
                        <path d="M288.497409,111.733967 C268.128958,104.185183 247.760507,104.185183 227.392055,111.733967 L227.392055,87.2277833 C247.316816,81.3278727 268.572648,81.3278727 288.497409,87.2277833 L288.497409,111.733967 Z" id="Path" stroke="#3F3D56" stroke-width="2"></path>
                        <path d="M280.483592,106.745843 C265.791595,101.279479 251.099597,101.279479 236.407599,106.745843 L236.407599,88.9999849 C250.779558,84.7276376 266.111633,84.7276376 280.483592,88.9999849 L280.483592,106.745843 Z" id="Path" stroke="#3F3D56" stroke-width="2"></path>
                        <ellipse id="Oval" stroke="#3F3D56" stroke-width="2" cx="257.443869" cy="94.2755344" rx="9.01554404" ry="4.48931116"></ellipse>
                        <ellipse id="Oval" fill="#008489" fill-rule="nonzero" transform="translate(260.023763, 126.076700) rotate(-11.535460) translate(-260.023763, -126.076700) " cx="260.023763" cy="126.0767" rx="8.97081619" ry="4.73736166"></ellipse>
                        <path d="M296.511226,134.504119 C275.265926,131.06057 255.541067,135.109474 237.336648,146.650831 L232.400691,122.327537 C250.507538,112.510951 271.091739,108.285651 291.57527,110.180824 L296.511226,134.504119 Z" id="Path" stroke="#3F3D56" stroke-width="2"></path>
                        <path d="M287.495682,131.801267 C272.225626,129.288405 258.048389,132.24301 244.963971,140.665083 L241.416235,122.915651 C254.430526,115.752198 269.225415,112.668871 283.947946,114.051834 L287.495682,131.801267 Z" id="Path" stroke="#3F3D56" stroke-width="2"></path>
                        <ellipse id="Oval" stroke="#3F3D56" stroke-width="2" transform="translate(262.704172, 123.382467) rotate(-11.535460) translate(-262.704172, -123.382467) " cx="262.704172" cy="123.382467" rx="8.97081619" ry="4.73736166"></ellipse>
                        <ellipse id="Oval" fill="#008489" fill-rule="nonzero" transform="translate(258.163182, 155.518478) rotate(-86.019400) translate(-258.163182, -155.518478) " cx="258.163182" cy="155.518478" rx="4.73690472" ry="8.97167484"></ellipse>
                        <path d="M290.786853,173.586698 C271.186031,164.459622 251.056159,163.039609 230.397237,169.326661 L232.114701,144.30665 C252.219564,139.672118 273.226422,141.153996 292.504318,148.566687 L290.786853,173.586698 Z" id="Path" stroke="#3F3D56" stroke-width="2"></path>
                        <path d="M283.243929,167.60095 C269.017527,161.040877 254.407144,160.020243 239.412781,164.539048 L240.659331,146.555916 C255.251569,143.224845 270.498481,144.289945 284.490501,149.617818 L283.243929,167.60095 Z" id="Path" stroke="#3F3D56" stroke-width="2"></path>
                        <ellipse id="Oval" stroke="#3F3D56" stroke-width="2" transform="translate(261.468598, 153.637514) rotate(-86.019400) translate(-261.468598, -153.637514) " cx="261.468598" cy="153.637514" rx="4.73690472" ry="8.97167484"></ellipse>
                        <path d="M218.376511,112.578481 C218.376511,112.578481 179.806503,107.174716 152.262522,123.705463" id="Path" stroke="#3F3D56" stroke-width="2"></path>
                        <polygon id="Path" fill="#3F3D56" fill-rule="nonzero" points="153.056978 117.719715 154.001322 118.058259 152.525197 123.326423 157.271157 124.609414 157.040142 125.700713 151.260794 124.13635"></polygon>
                    </g>
                </g>
            </g>
        </g>
    </g>
</svg>