<?xml version="1.0" encoding="UTF-8"?>
<svg width="568px" height="354px" viewBox="0 0 568 354" version="1.1" xmlns="http://www.w3.org/2000/svg" xmlns:xlink="http://www.w3.org/1999/xlink">
    <!-- Generator: sketchtool 53.2 (72643) - https://sketchapp.com -->
    <title>D3393885-D7E1-44B3-BAAA-81C6261102C3</title>
    <desc>Created with sketchtool.</desc>
    <g id="Page-1" stroke="none" stroke-width="1" fill="none" fill-rule="evenodd">
        <g id="08_become_a_host" transform="translate(-737.000000, -2093.000000)" fill-rule="nonzero">
            <g id="why" transform="translate(181.000000, 1435.000000)">
                <g id="1" transform="translate(70.000000, 658.000000)">
                    <g id="undraw_having_fun_iais" transform="translate(486.000000, 0.000000)">
                        <path d="M564.42835,242.77441 C558.711488,256.508947 546.750749,268.914659 533.91165,280.66348 C522.625156,290.993216 510.552321,300.975285 497.693146,310.609686 C494.129518,313.284051 490.509006,315.924987 486.83161,318.532493 L484.27684,320.332675 C482.01151,321.933951 479.7077,323.520184 477.36541,325.091374 L477.084335,325.281923 C474.812313,326.826369 472.520214,328.355771 470.208039,329.870131 C462.644114,334.834421 454.648537,339.763611 445.809737,343.845361 C442.79822,345.239374 439.691339,346.538112 436.474036,347.701461 C434.734048,348.33328 432.957254,348.924983 431.143652,349.476571 C428.172289,350.379169 425.120619,351.166436 421.93343,351.813298 C421.401396,351.923615 420.864342,352.028919 420.327288,352.129207 C417.064812,352.740968 413.762182,353.187253 410.424418,353.493134 C398.192642,354.611353 385.559331,353.794 373.307478,351.878486 C367.184061,350.920728 361.156009,349.687177 355.323706,348.283136 C354.605961,348.112645 353.893235,347.93714 353.175491,347.781692 C333.31454,342.817402 314.668234,336.078001 294.666745,331.33936 C287.773719,329.704654 280.746847,328.317327 273.58613,327.177379 C270.092771,326.622448 266.579335,326.121005 263.045823,325.673048 C254.729018,324.640075 246.30681,323.948083 237.849468,323.597072 C226.445859,323.095629 214.67083,323.31125 203.819332,325.30198 C202.373804,325.566074 200.94668,325.863597 199.53796,326.19455 C197.751127,326.612419 195.997755,327.088791 194.277844,327.623664 C189.641276,329.120385 185.128703,330.976347 180.781231,333.174643 C179.922949,333.595856 179.074706,334.022083 178.226462,334.453324 L178.226462,334.453324 C175.566289,335.807222 172.94125,337.191206 170.276058,338.535074 C165.479382,341.043316 160.487394,343.159629 155.348975,344.863291 C152.534483,345.751402 149.672405,346.48131 146.776192,347.049585 C139.111882,348.584002 130.955692,349.190748 122.764367,349.230864 C118.814261,349.230864 114.859136,349.145618 110.949184,348.940027 L110.828724,348.940027 C109.493618,348.869825 108.153493,348.789594 106.813368,348.689305 C100.710028,348.273107 94.6267651,347.631259 88.6338473,346.753733 C68.1003243,343.745072 48.6258513,338.058703 32.9609466,329.38373 C11.6845829,317.609837 -1.82708762,300.0543 0.20066679,282.513807 C1.65623307,269.877431 10.6958016,258.143653 19.2736043,246.655583 C35.2296223,225.264003 50.1767823,203.386023 58.0418594,180.324637 C64.4212551,161.605751 66.3235296,141.813777 81.0046723,124.990347 C85.7076572,119.604844 91.7206517,114.690698 98.7224274,110.383298 C103.956072,107.182145 109.441746,104.411723 115.125154,102.099452 C121.548583,99.4709763 128.156557,97.3173346 134.895759,95.6559029 C140.736434,94.2082867 146.655421,93.0965989 152.623553,92.326318 C155.865952,91.9051055 159.148505,91.5791672 162.451135,91.3585321 C164.994193,91.1813554 167.548963,91.0693664 170.115444,91.022565 L170.51196,91.022565 C172.081295,90.9924783 173.65063,90.9924783 175.219964,91.022565 C186.663048,91.1995556 198.074723,92.2709005 209.350484,94.2267889 C216.407471,95.4051811 223.404228,96.8493384 230.255428,98.4389142 C234.344398,99.384971 238.39656,100.376158 242.411916,101.412474 C243.636599,101.728384 244.861282,102.049307 246.070908,102.375246 C274.640161,110.022259 299.776285,120.582659 327.301545,129.247603 C327.442083,129.292733 327.577601,129.337862 327.718138,129.372963 L327.718138,129.372963 C333.367573,131.108667 339.103975,132.548103 344.903859,133.685378 C349.165155,134.537831 353.521815,135.274953 357.953763,135.921816 C364.739714,136.924702 371.671221,137.716983 378.65292,138.398946 L380.193812,138.549379 C390.437988,139.552266 400.772508,140.299417 410.810896,141.171929 C414.374524,141.482824 417.908037,141.803748 421.391357,142.174816 C423.599803,142.395451 425.788171,142.629458 427.956463,142.876837 C429.512413,143.057356 431.073383,143.237876 432.634352,143.428425 C434.195322,143.618973 435.846636,143.819551 437.452778,144.025142 C438.496771,144.155518 439.535744,144.290907 440.579736,144.436326 C446.903921,145.273737 453.213048,146.211436 459.451906,147.284525 C463.246417,147.936402 467.020851,148.638423 470.750112,149.395602 C473.450438,149.943847 476.127342,150.522179 478.780823,151.130597 C480.748347,151.57521 482.69914,152.043224 484.633203,152.534638 C500.3483,156.480999 515.054538,161.655896 527.728003,168.641004 C560.638859,186.738099 575.365174,216.5088 564.42835,242.77441 Z" id="Path" fill="#F2F2F2"></path>
                        <path d="M176.368138,116.41886 C176.457946,117.929246 176.369021,119.444876 176.103186,120.934701 C175.103366,125.544829 170.874127,128.71088 166.779864,131.112712 C162.6856,133.514544 158.18641,135.787352 155.751848,139.841684 C152.817376,144.739635 153.752208,151.324823 157.196588,155.900214 C160.640968,160.475604 166.099986,163.199996 171.718975,164.3364 C181.967131,166.435522 193.190111,163.487819 200.873728,156.441122 C208.557346,149.394425 212.411652,138.38272 210.526991,128.155084 C206.357742,128.735692 202.64341,125.08332 201.293653,121.123275 C199.943896,117.163229 200.223845,112.870699 199.69894,108.717118 C199.660646,108.014787 199.447673,107.332812 199.079051,106.732132 C198.494157,105.928213 197.459343,105.600691 196.494516,105.33768 C191.675384,104.022628 183.566843,101.144399 178.572741,102.246066 C174.073551,103.268333 176.293152,112.667238 176.368138,116.41886 Z" id="Path" fill="#BE6F72"></path>
                        <path d="M176.368138,116.41886 C176.457946,117.929246 176.369021,119.444876 176.103186,120.934701 C175.103366,125.544829 170.874127,128.71088 166.779864,131.112712 C162.6856,133.514544 158.18641,135.787352 155.751848,139.841684 C152.817376,144.739635 153.752208,151.324823 157.196588,155.900214 C160.640968,160.475604 166.099986,163.199996 171.718975,164.3364 C181.967131,166.435522 193.190111,163.487819 200.873728,156.441122 C208.557346,149.394425 212.411652,138.38272 210.526991,128.155084 C206.357742,128.735692 202.64341,125.08332 201.293653,121.123275 C199.943896,117.163229 200.223845,112.870699 199.69894,108.717118 C199.660646,108.014787 199.447673,107.332812 199.079051,106.732132 C198.494157,105.928213 197.459343,105.600691 196.494516,105.33768 C191.675384,104.022628 183.566843,101.144399 178.572741,102.246066 C174.073551,103.268333 176.293152,112.667238 176.368138,116.41886 Z" id="Path" fill="#000000" opacity="0.1"></path>
                        <path d="M169.654514,338.505817 C164.874258,341.008071 159.899359,343.119331 154.778531,344.818926 C151.973674,345.704917 149.121394,346.433082 146.235095,347 C146.030877,343.153452 146.240497,339.296093 146.860346,335.494335 C147.250503,333.308258 147.825734,331.142192 147.975795,328.9261 C148.18819,325.727298 147.503937,322.532675 146,319.701558 C151.572241,318.941184 156.86437,317.700573 162.461621,318.065753 L162.816764,318.090765 C163.482337,318.107674 164.140919,318.230958 164.767548,318.455945 C165.628725,318.872575 166.360183,319.515901 166.883399,320.316861 C167.171603,320.709932 167.437141,321.119132 167.678719,321.542465 C169.259355,324.27381 169.859596,327.425361 169.984646,330.67196 C170.043477,333.287632 169.933203,335.904372 169.654514,338.505817 L169.654514,338.505817 Z" id="Path" fill="#BE6F72"></path>
                        <path d="M200,327.232151 C198.135676,327.637314 196.306265,328.0992 194.511765,328.61781 C189.67412,330.06902 184.965847,331.868547 180.429835,334 C180.135169,332.675773 179.991237,331.32646 180.000412,329.974297 C185.400759,326.516711 192.081002,325.24122 198.51273,326.439651 C198.938299,326.487539 199.342835,326.638439 199.685788,326.877228 C199.810063,326.979382 199.916115,327.099176 200,327.232151 L200,327.232151 Z" id="Path" fill="#BE6F72"></path>
                        <path d="M207.245145,301.212178 C206.905252,304.512243 206.405408,307.8224 205.24577,310.925672 C203.991163,314.256013 201.9518,317.485435 202.211719,321.042844 C202.326683,322.586911 202.846521,324.262174 202.921497,325.791103 C201.481947,326.056857 200.060725,326.356252 198.65783,326.689286 C196.878387,327.109783 195.132266,327.589151 193.419468,328.127387 C188.802074,329.633522 184.308163,331.501156 179.978671,333.713277 C179.123938,334.137139 178.279202,334.566046 177.434466,335 L177.434466,335 C177.084576,334.954586 176.739683,334.899081 176.389793,334.833483 C173.890574,334.3743 171.261396,333.244002 169.846839,331.225614 C169.523099,330.761098 169.26879,330.251044 169.092075,329.711822 C168.277329,327.254434 169.127064,324.19153 167.432593,322.243785 L167.352618,322.314429 L167.292637,322.354797 C166.364446,323.203628 165.345088,323.944951 164.253587,324.564932 L164.253587,324.564932 C159.229051,327.435551 153.233817,328.018767 147.758745,326.169551 C146.686125,325.800896 145.650221,325.331235 144.664712,324.766771 C142.375428,323.449772 140.166119,321.234591 140.346063,318.590502 C140.446031,317.117079 141.28077,315.704207 141.055841,314.245921 C140.890892,313.201405 140.211105,312.333498 139.701264,311.410085 C136.35731,305.35492 140.346063,297.568987 138.246719,290.989041 C138.196735,290.832615 138.141752,290.67619 138.086769,290.524811 C137.931817,290.095904 137.756872,289.682134 137.586925,289.268364 C137.15706,288.304584 136.67721,287.355941 136.297328,286.366931 C135.980992,285.535448 135.730288,284.680012 135.547563,283.808624 C135.075693,281.278232 134.907867,278.699622 135.047719,276.128656 C135.047719,269.351917 136.247344,262.413707 137.95681,255.88422 C138.261714,254.723647 138.601608,253.083706 139.051467,251.297432 L139.051467,251.297432 C139.489977,249.414646 140.081805,247.571645 140.820914,245.787232 C141.820602,243.466085 143.180176,241.614214 145.039595,241.175214 C147.83872,240.514192 152.117382,241.911926 154.956494,242.255052 L166.177986,243.607372 L188.61597,246.317059 C192.489759,246.786334 196.558487,247.326253 199.752488,249.526297 C199.962422,249.67263 200.167358,249.824009 200.372294,249.98548 C201.216096,250.656434 201.971928,251.433018 202.621591,252.296535 C202.851519,252.594247 203.07145,252.907097 203.281385,253.224993 C204.009337,254.350014 204.62865,255.542968 205.130806,256.787449 C207.914936,263.538958 207.979916,271.072593 207.999909,278.384205 C207.999909,286.013713 208.024901,293.638175 207.245145,301.212178 Z" id="Path" fill="#3F3D56"></path>
                        <path d="M165.335702,324 C164.693171,321.448677 163.336717,317.754164 163.136819,316.748354 C162.46627,313.374102 161.980036,309.963699 161.680415,306.533247 C161.152112,300.419884 160.200215,291.814074 162.294389,286 C164.260058,287.079406 165.987752,290.136088 166.896814,292.221304 C170.19038,299.782053 166.482738,309.064945 169.576406,316.714009 C169.80773,317.172161 169.951534,317.671852 170,318.185926 C169.946263,318.838582 169.718999,319.463327 169.343191,319.991478 L168.300863,321.777405 L165.335702,324 Z" id="Path" fill="#000000" opacity="0.1"></path>
                        <path d="M236.444752,85.6906209 C240.117645,79.637658 245.147912,73.6855778 244.83352,66.6086553 C244.718743,64.0865874 243.900326,61.620005 243.276533,59.1483785 C241.488933,51.9950455 241.371053,44.5195989 242.932199,37.3123148 C249.103271,36.3101942 255.419495,37.7401635 260.578056,41.3072703 C262.209898,42.447245 263.756905,43.8646471 264.475515,45.7360215 C265.13923,47.4611159 265.029443,49.3829317 264.909675,51.2290854 C264.635206,55.4712035 264.26093,59.9957933 261.675932,63.3350112 C260.872486,64.3791473 259.884398,65.2618711 259.100914,66.3160954 C257.958125,67.8293362 257.289419,69.6754898 256.635684,71.4762463 L248.152099,94.8053742 C243.870384,106.563255 239.229364,118.860858 229.797614,126.997049 C229.568058,127.19377 222.811132,117.493897 222.252214,116.520379 C219.991588,112.530467 220.979676,110.845726 223.714385,107.506508 C229.108946,100.903734 232.038278,92.939044 236.444752,85.6906209 Z" id="Path" fill="#BE6F72"></path>
                        <path d="M139,283 C138.971532,284.731141 138.828724,286.458353 138.572547,288.169883 C138.484109,288.801702 138.38093,289.428506 138.258099,290.055311 C136.582681,298.981006 132.411331,307.470445 129.49286,316.165476 C125.645785,327.643519 123.955627,337.602188 122.61431,349 C118.747582,349 114.87594,348.914755 111.048518,348.709163 L110.9306,348.709163 C109.623676,348.638961 108.311838,348.55873 107,348.458441 C108.184093,337.827838 106.01735,326.675733 108.134961,316.035101 C108.989866,311.752773 110.449102,307.595806 111.328574,303.333536 C111.59969,302.078665 111.804703,300.809864 111.94273,299.532594 C112.065561,298.3191 112.129433,297.060477 112.664978,295.96733 C112.713935,295.861692 112.769742,295.759505 112.832028,295.66145 C113.30248,294.904886 113.886025,294.22811 114.561492,293.655675 C120.548013,288.297831 127.870266,284.734856 135.717949,283.361039 C136.833257,283.205592 137.919085,283.075217 139,283 Z" id="Path" fill="#FBBEBE"></path>
                        <path d="M139,283 C138.971532,284.731141 138.828724,286.458353 138.572547,288.169883 C138.484109,288.801702 138.38093,289.428506 138.258099,290.055311 C136.582681,298.981006 132.411331,307.470445 129.49286,316.165476 C125.645785,327.643519 123.955627,337.602188 122.61431,349 C118.747582,349 114.87594,348.914755 111.048518,348.709163 L110.9306,348.709163 C109.623676,348.638961 108.311838,348.55873 107,348.458441 C108.184093,337.827838 106.01735,326.675733 108.134961,316.035101 C108.989866,311.752773 110.449102,307.595806 111.328574,303.333536 C111.59969,302.078665 111.804703,300.809864 111.94273,299.532594 C112.065561,298.3191 112.129433,297.060477 112.664978,295.96733 C112.713935,295.861692 112.769742,295.759505 112.832028,295.66145 C113.30248,294.904886 113.886025,294.22811 114.561492,293.655675 C120.548013,288.297831 127.870266,284.734856 135.717949,283.361039 C136.833257,283.205592 137.919085,283.075217 139,283 Z" id="Path" fill="#000000" opacity="0.1"></path>
                        <path d="M113.997878,305.705627 C113.915814,308.52085 113.683723,311.329719 113.302589,314.120319 C111.947538,325.523973 111.693783,337.4241 110.76504,349 C109.415064,348.929075 108.060013,348.848019 106.704961,348.746698 C100.533642,348.326217 94.3826229,347.677764 88.3229555,346.791207 C88.7898646,344.183885 89.260157,341.576564 89.7338329,338.969242 C90.3123941,335.772571 90.8909553,332.545504 90.723477,329.303239 C90.566149,326.238285 89.743983,323.254388 89.0892954,320.250227 C87.6936433,313.816356 86.9120782,306.875883 84.6130587,300.806767 C83.4140489,297.402762 81.5003167,294.293748 79,291.687896 C88.5107342,287.959291 97.6509862,287.746518 107.867159,288.141669 C108.592446,288.101634 109.31326,288.277988 109.937799,288.648273 C110.421963,289.066926 110.781816,289.610122 110.978194,290.218745 C112.51336,293.905067 113.476845,297.803376 113.835475,301.779447 C113.95755,303.084492 114.011757,304.394978 113.997878,305.705627 Z" id="Path" fill="#FBBEBE"></path>
                        <circle id="Oval" fill="#BE6F72" cx="188.5" cy="94.5" r="19.5"></circle>
                        <path d="M193.039106,140.070283 C195.546697,135.781013 197.743346,130.425711 202.56795,129.233967 C205.291194,128.555126 208.124771,129.480362 210.777802,130.390512 C211.546447,130.572908 212.244295,130.978731 212.783874,131.557113 C213.175806,132.180727 213.386,132.901806 213.390711,133.638892 C214.230651,142.503955 214.202096,151.430214 213.305453,160.289693 C212.668525,166.560174 211.595276,172.800484 211.4047,179.101135 C211.138895,187.835558 212.573237,196.569981 212.10181,205.294347 C211.745732,211.906762 210.30136,218.403523 208.867018,224.865085 L202.8488,251.918162 C202.741083,252.755259 202.406278,253.546655 201.88087,254.206108 C201.373339,254.672734 200.766052,255.016742 200.105496,255.211799 C182.489474,261.455521 163.060565,259.930053 146.628619,251.013041 C144.457046,249.816269 142.290487,248.433444 140.876206,246.391893 C138.870134,243.495504 138.684572,239.663822 139.336546,236.19419 C139.988519,232.724557 141.397785,229.451035 142.345654,226.046772 C143.810087,220.766896 144.156135,215.255712 144.487137,209.784755 C144.928473,202.58401 145.369809,195.33801 144.602486,188.162407 C144.075892,183.219438 142.977567,178.351896 142.150062,173.449154 C140.931254,166.059905 140.224095,158.594921 140.033656,151.107738 C139.908276,146.637443 140.113899,141.67436 143.198235,138.451122 C144.70279,136.882244 146.708862,135.936895 148.750041,135.17257 C152.17541,133.9054 156.001993,133.161189 159.462468,134.317733 C162.922943,135.474277 165.711384,139.114877 164.893909,142.680051 C164.51777,144.334412 163.449537,145.782606 163.188747,147.462109 C162.8427,149.684685 164.016252,151.922347 165.696338,153.425854 C174.733695,161.612176 188.530458,147.834215 193.039106,140.070283 Z" id="Path" fill="#E3E8F4"></path>
                        <path d="M193.50002,120.47119 C196.26638,119.457984 199.272776,119.283073 202.139105,119.968573 C203.963979,120.400824 205.93545,121.164802 207.618783,120.355588 C208.230444,120.06407 208.73595,119.586584 209.352666,119.31517 C211.020834,118.586375 213.184396,119.481034 214.660472,118.420511 C215.590602,117.75203 215.893905,116.535696 216.207318,115.429937 C217.725319,110.15177 220.836083,105.464036 225.119377,102 C224.588596,105.855076 224.204412,110.242926 226.767324,113.188264 C227.935041,114.525226 229.572878,115.364597 231.230936,116.018 C233.611866,116.957894 236.225328,117.58114 238.73769,117.06847 C241.250051,116.5558 243.600651,114.665959 244,112.147846 C243.914064,115.932555 240.289591,118.576322 239.273525,122.230351 C238.889341,123.597471 238.924727,125.050035 238.656809,126.447311 C237.974377,130.015895 235.411465,132.880814 233.172076,135.755786 C226.019686,145.002925 221.450833,155.964481 219.927837,167.531259 C219.824239,168.903854 219.535188,170.256324 219.068478,171.552198 C218.573078,172.546085 218.012441,173.506484 217.3902,174.42717 C213.684847,180.649574 214.827289,188.500458 216.085997,195.607468 C218.052412,206.740444 220.013773,217.647242 223.198456,228.498752 C223.744402,230.35341 224.361119,232.288487 225.751258,233.640528 C225.311469,238.028378 220.857967,240.028796 216.854365,241.923663 C212.901359,243.797918 209.254577,246.253058 206.036551,249.20659 C204.883999,250.262086 203.746612,251.448263 203.327043,252.95109 C202.932749,254.363444 203.215832,255.916532 202.710326,257.288678 C202.204821,258.660823 200.1828,259.645954 199.29311,258.489934 C198.180999,254.353392 200.081699,250.025856 199.995763,245.743556 C199.935102,242.853506 198.984752,240.043874 198.848266,237.153824 C198.716834,233.881785 199.687405,230.670059 200.718635,227.563884 C203.589906,218.913838 207.057672,210.344211 208.053517,201.292071 C209.049363,192.239931 207.189103,182.353447 200.728745,175.894813 C193.06023,168.194714 188.803875,157.75535 180.584359,150.683523 C179.280155,149.562686 177.80408,148.170436 178.021447,146.471589 C178.171547,145.723417 178.502969,145.022954 178.986962,144.430963 C181.807682,140.470337 185.558531,137.238507 188.591563,133.448772 C191.624595,129.659037 194.05102,125.296317 193.50002,120.47119 Z" id="Path" fill="#3F3D56"></path>
                        <path d="M166.86764,128.093834 C166.372123,128.591527 166.030216,129.278344 165.455417,129.706361 C164.784085,130.122473 164.01853,130.360512 163.230546,130.398155 C160.314363,130.843005 157.373699,131.107282 154.425209,131.189488 C151.947624,131.189488 149.375891,130.970503 146.992455,131.652343 C143.667536,132.597961 141.011565,135.235737 139.346628,138.271668 C137.681691,141.307599 136.893819,144.741685 136.254602,148.16084 C134.845547,155.693888 134.091173,163.33571 134,171 C138.084378,167.728554 141.724375,163.933691 144.827046,159.712309 C147.205527,156.472323 149.361026,152.888929 152.755317,150.723962 C154.316195,149.728575 156.070325,149.071619 157.641114,148.101117 C160.916481,146.075504 163.185949,142.80068 165.366224,139.640325 C166.971699,137.296189 171.614693,132.717407 171.981375,129.910415 C172.293551,127.227847 168.601949,125.918913 166.86764,128.093834 Z" id="Path" fill="#3F3D56"></path>
                        <path d="M185.967811,80.6689647 C186.590857,81.0388189 187.187601,81.4503191 187.753873,81.9005896 C191.17968,84.2641127 195.765922,83.8253151 199.908172,83.2867909 C201.179605,83.1272281 202.486356,82.94772 203.576156,82.2895237 C205.3269,81.2224479 206.149296,79.0284602 205.977753,76.9990216 C205.80621,74.969583 204.771909,73.0997072 203.510566,71.5140524 C200.133754,67.2736564 195.147017,64.5851174 189.711477,64.0744396 C188.31876,63.894016 186.902601,64.0426902 185.579318,64.5082508 C183.949663,65.1714335 182.723638,66.5376894 181.220117,67.4501889 C176.785236,70.1428101 169.953803,68.9460896 167.093078,73.2443109 C164.999249,76.4156204 166.492679,80.7238143 165.503786,84.3688257 C164.767162,87.091365 162.643061,89.5695738 163.051736,92.3469627 C163.278778,93.8428634 164.227307,95.1492834 164.984113,96.4856213 C166.722081,99.5578048 167.526184,103.060347 167.299938,106.572978 C169.242406,107.929262 171.95177,105.820042 172.491625,103.5363 C173.03148,101.252558 172.410899,98.8192264 172.870028,96.5155393 C173.682333,92.4716211 177.294818,89.5047514 178.924473,85.7949177 C180.094999,83.1372008 182.00215,78.6494987 185.967811,80.6689647 Z" id="Path" fill="#3F3D56"></path>
                        <path d="M138.185361,124.089761 C138.037522,125.012643 137.94389,126.031871 138.441615,126.812772 C139.42721,128.334007 141.684222,127.786362 143.458293,128.014548 C146.222887,128.364432 148.263068,131.057018 148.800217,133.886516 C149.337366,136.716014 148.69673,139.596219 147.996957,142.375009 C146.413435,148.672923 144.527664,154.881254 142.339643,161 C136.455642,160.285019 130.261178,157.957529 127.136843,152.7904 C124.29833,148.089783 124.58908,142.101187 122.785442,136.88842 C121.518952,133.217172 119.247156,130.022578 117,126.888834 C120.612205,127.355346 123.194463,123.106028 123.406366,119.36379 C123.618269,115.621551 122.474979,111.823533 123.253599,108.167498 C123.435934,107.300394 137.672852,110.033546 139.057612,111.022349 C143.059127,113.877201 138.816142,120.124407 138.185361,124.089761 Z" id="Path" fill="#FBBEBE"></path>
                        <path d="M138.185361,124.089761 C138.037522,125.012643 137.94389,126.031871 138.441615,126.812772 C139.42721,128.334007 141.684222,127.786362 143.458293,128.014548 C146.222887,128.364432 148.263068,131.057018 148.800217,133.886516 C149.337366,136.716014 148.69673,139.596219 147.996957,142.375009 C146.413435,148.672923 144.527664,154.881254 142.339643,161 C136.455642,160.285019 130.261178,157.957529 127.136843,152.7904 C124.29833,148.089783 124.58908,142.101187 122.785442,136.88842 C121.518952,133.217172 119.247156,130.022578 117,126.888834 C120.612205,127.355346 123.194463,123.106028 123.406366,119.36379 C123.618269,115.621551 122.474979,111.823533 123.253599,108.167498 C123.435934,107.300394 137.672852,110.033546 139.057612,111.022349 C143.059127,113.877201 138.816142,120.124407 138.185361,124.089761 Z" id="Path" fill="#000000" opacity="0.1"></path>
                        <circle id="Oval" fill="#FBBEBE" cx="134.5" cy="99.5" r="19.5"></circle>
                        <path d="M127.958329,121.925112 C128.667506,120.815237 127.458909,119.265411 128.013266,118.070546 C128.342883,117.350626 129.176915,117.040661 129.821168,116.570714 C130.62914,115.91248 131.273625,115.075654 131.703983,114.125989 C134.736434,108.292971 135.654243,101.587712 134.300969,95.1531219 C133.841503,92.9933647 133.431978,90.1236873 135.404689,89.1537963 C135.951489,88.9094973 136.550758,88.8063631 137.147666,88.85383 C140.70354,88.9688171 144.139553,91.353549 147.590548,90.508644 C150.002638,89.852087 151.754319,87.7658004 151.985448,85.2742324 C152.210188,82.0445955 149.792992,79.2749069 147.415751,77.1001513 C143.135718,73.1605942 136.613286,72.2856926 130.800032,72.1907032 L119.987579,72.0107235 C116.526595,71.9507302 112.646098,72.0607179 110.238891,74.5454385 C106.772913,78.1200367 108.51589,83.9693791 108.01647,88.9238221 C107.591913,92.8780919 105.615852,96.5016692 102.522845,98.9976897 C100.280447,100.787488 97.194028,102.497296 97.2339817,105.356975 C97.2339817,106.356862 97.6634833,107.26676 97.9381645,108.211654 C99.0418838,111.951233 97.9881066,116.085769 95.8705638,119.360401 C93.753021,122.635032 90.656614,125.154749 87.4453404,127.359501 C85.7273339,128.534369 83.949397,129.664242 82.5909733,131.259063 C81.1016999,133.101149 80.2173497,135.358867 80.0589115,137.723336 C79.8451942,139.530114 80.2163129,141.357862 81.1176829,142.93775 C83.2302315,146.31737 88.2993494,146.812314 91.7703217,144.852535 C95.241294,142.892755 97.3588368,139.183172 98.7622083,135.453591 C99.6012347,133.23884 100.455244,130.704125 102.602752,129.709237 C105.319599,128.444379 108.495913,130.444155 110.263862,132.868882 C112.03181,135.293609 113.120547,138.253277 115.382922,140.223055 C118.928807,143.312708 124.961806,142.812764 127.958329,139.183172 C130.100843,136.578465 130.575293,132.97387 130.455432,129.59925 C130.395825,126.850912 129.527164,124.181329 127.958329,121.925112 Z" id="Path" fill="#3F3D56"></path>
                        <path d="M135.35662,147.55635 C133.128015,148.034916 130.799247,146.977034 129.141565,145.395249 C127.483883,143.813463 126.367077,141.773263 125.205197,139.79855 C122.259485,134.817532 118.882617,130.10765 115.113871,125.723683 C111.828556,121.910271 107.256158,118.036408 102.378267,119.215191 C100.745058,119.689304 99.2296618,120.504668 97.9310718,121.608019 C89.1884957,128.570902 84.616685,139.564347 85.8264886,150.714883 C86.2071044,153.923792 87.0735061,157.062175 87.4340895,160.286196 C87.6769818,162.943613 87.7472444,165.61414 87.6444298,168.28076 C87.509211,176.401263 87.2337654,184.990256 82.8817245,191.831226 C76.1358107,202.410045 72.524969,215.044177 67.5719559,226.590202 C64.8976293,232.831705 63.2950365,239.476211 61.7224924,246.085454 C60.7909854,250.008013 59.8611477,253.928893 58.9329795,257.848093 L52.8731757,283.489135 C52.2471629,286.13384 51.6211501,288.904483 52.2822196,291.549188 C53.2838401,295.498613 56.9748115,298.259181 60.8661069,299.382551 C64.7574024,300.505921 68.8790706,300.314495 72.9206091,300.349757 C80.653119,300.42532 88.4457261,301.392527 95.7024663,304.092644 C97.7758207,304.863387 99.8441669,305.785255 102.05274,305.966606 C104.261313,306.147958 106.45987,305.568641 108.528216,304.762636 C114.172347,302.566272 119.010174,298.717597 124.208584,295.609439 C127.455714,293.641213 130.875564,291.976885 134.425113,290.637394 C136.207997,289.967402 138.121093,289.332673 139.348078,287.866751 C140.274577,286.763531 140.690249,285.322797 140.995743,283.912288 C142.688482,275.973136 141.551643,267.746845 140.995743,259.646492 C140.439844,251.54614 135.627058,242.987371 139.608499,235.92475 C140.409795,234.499129 141.366343,233.12892 141.777007,231.547134 C142.317882,229.481746 141.862145,227.260194 142.317882,225.174655 C142.653425,223.63317 143.45973,222.247849 144.010621,220.771852 C144.972176,218.172485 145.102387,215.341391 145.092371,212.565711 C145.069751,206.471469 144.432122,200.395278 143.189292,194.430593 C141.61174,186.874294 146.830182,179.403633 149.820019,172.265449 C150.891753,169.711419 152.409208,167.298441 152.854929,164.563061 C153.255578,162.09467 152.739743,159.580941 152.354119,157.107512 C151.778599,153.274033 151.543959,149.396579 151.652985,145.521187 C151.748139,142.045289 152.11373,138.503904 151.287393,135.123719 C150.461057,131.743535 148.10224,128.464101 144.711755,127.768921 C143.941975,127.541936 143.111615,127.673136 142.448093,128.126586 C142.056717,128.512575 141.780836,129.001258 141.651805,129.537095 C140.550022,132.932392 140.765371,136.589641 140.149374,140.115914 C139.533377,143.642187 138.812211,146.810795 135.35662,147.55635 Z" id="Path" fill="#FD566F"></path>
                        <path d="M88.3533988,170.17832 C88.5692715,168.792307 87.8900623,166.950962 86.4158097,167.000998 C85.0573912,167.051035 84.4518946,168.667216 84.4571598,169.963163 C84.462425,171.25911 84.6467066,172.745197 83.6831772,173.655862 C82.8302168,174.461451 81.4191464,174.436433 80.4292911,175.091912 C79.7203437,175.572459 79.3019382,176.350904 79.3078061,177.178437 C79.3078061,177.873945 79.6395129,178.539431 79.6605737,179.23494 C79.6816344,179.930448 79.191972,180.736037 78.4653761,180.691004 C77.6979421,181.914936 77.8947083,183.476632 78.9445081,184.493783 C79.3236017,184.844039 79.8185293,185.144259 79.9448938,185.634617 C79.9849158,185.978526 79.9563354,186.326523 79.8606508,186.660367 C79.6395129,188.036372 80.6398986,189.577499 82.0983557,189.727608 C81.2822515,190.283014 81.4454724,191.583965 82.193129,192.229437 C82.9407857,192.874909 84.014884,193 85.0205349,193 C87.3029667,192.988 89.5600185,192.544043 91.6599368,191.694046 C92.378962,191.468485 93.0148524,191.051724 93.4922222,190.493168 C93.9496732,189.898139 93.8849769,189.075542 93.3395317,188.551749 C94.3609781,188.711866 95.5877669,188.801932 96.2564458,188.051383 C97.188384,187.000615 96.1879983,185.444478 95.2034082,184.428736 C96.0381373,184.31085 96.7182226,183.73083 96.9315205,182.954891 C97.1448184,182.178953 96.8501389,181.356937 96.1827331,180.866132 C95.8457611,180.63096 95.3876898,180.42581 95.3403031,180.030521 C95.2929164,179.635232 95.645684,179.380046 95.7931092,179.02979 C96.1300813,178.244216 95.3613638,177.44363 94.6189724,176.968283 C92.8603996,175.857471 90.2699272,175.877486 88.7061664,174.756667 C87.1424056,173.635847 88.1269957,171.679418 88.3533988,170.17832 Z" id="Path" fill="#BE6F72"></path>
                        <path d="M190.448935,93.0020894 C189.195743,93.1234106 187.93468,93.1516687 186.676965,93.0866122 C186.230924,93.0397802 185.828093,93.3450248 185.771486,93.7727382 L183.365497,111.114822 C183.180402,112.373695 182.644002,113.560911 181.813246,114.550424 C180.428843,116.142153 179.793676,118.21443 180.059203,120.273113 L180.059203,149.731785 C180.059203,149.731785 179.903978,153.659608 183.044699,153.659608 C186.803614,154.113464 190.606865,154.113464 194.365781,153.659608 C194.365781,153.659608 196.880427,153.20219 196.880427,149.577655 L196.880427,120.571429 C197.268675,118.523222 196.701137,116.414518 195.328176,114.803992 C194.525234,113.810877 194.006205,112.633435 193.822493,111.388278 L191.323369,93.6832435 C191.264458,93.270122 190.881747,92.9720037 190.448935,93.0020894 Z" id="Path" fill="#3F3D56"></path>
                        <path d="M190.448935,93.0020894 C189.195743,93.1234106 187.93468,93.1516687 186.676965,93.0866122 C186.230924,93.0397802 185.828093,93.3450248 185.771486,93.7727382 L183.365497,111.114822 C183.180402,112.373695 182.644002,113.560911 181.813246,114.550424 C180.428843,116.142153 179.793676,118.21443 180.059203,120.273113 L180.059203,149.731785 C180.059203,149.731785 179.903978,153.659608 183.044699,153.659608 C186.803614,154.113464 190.606865,154.113464 194.365781,153.659608 C194.365781,153.659608 196.880427,153.20219 196.880427,149.577655 L196.880427,120.571429 C197.268675,118.523222 196.701137,116.414518 195.328176,114.803992 C194.525234,113.810877 194.006205,112.633435 193.822493,111.388278 L191.323369,93.6832435 C191.264458,93.270122 190.881747,92.9720037 190.448935,93.0020894 Z" id="Path" fill="#000000" opacity="0.1"></path>
                        <rect id="Rectangle" fill="#FD566F" x="182" y="121" width="14" height="25" rx="7"></rect>
                        <path d="M242.894981,17.0924978 C241.828197,17.685906 240.716549,18.1926737 239.570513,18.6080258 C239.157622,18.7326914 238.916873,19.1663366 239.026418,19.5880672 L243.588827,36.7640512 C243.915101,38.0107283 243.9013,39.3236045 243.548893,40.5629747 C242.92713,42.5757548 243.162284,44.759711 244.197814,46.5897244 L255.588861,74.2127481 C255.588861,74.2127481 256.966568,77.9510505 259.766909,76.7689386 C263.292217,75.7791977 266.680046,74.3432616 269.850132,72.4951497 C269.850132,72.4951497 271.911702,71.121071 270.514028,67.7262882 L259.29769,40.5276124 C258.850921,38.4608953 257.532014,36.69596 255.688695,35.6981298 C254.591076,35.0694721 253.674133,34.1623879 253.028121,33.0661629 L243.958212,17.4057069 C243.744455,17.0292381 243.274989,16.8909417 242.894981,17.0924978 L242.894981,17.0924978 Z" id="Path" fill="#3F3D56"></path>
                        <path d="M255.376343,43.2340352 L255.376343,43.2340352 C259.464534,43.2347439 262.778491,46.5487007 262.7792,50.6368923 L262.780972,60.8553864 C262.781681,64.9417457 259.469606,68.2549688 255.383247,68.2556775 C255.382392,68.2556776 255.381537,68.2556776 255.380682,68.2556775 L255.380682,68.2556775 C251.29249,68.2549688 247.978533,64.9410119 247.977824,60.8528203 L247.976052,50.6343262 C247.975343,46.5479669 251.287418,43.2347438 255.373777,43.2340352 C255.374632,43.234035 255.375487,43.234035 255.376343,43.2340352 Z" id="Rectangle" fill="#FD566F" transform="translate(255.378512, 55.744856) rotate(-22.650000) translate(-255.378512, -55.744856) "></path>
                        <path d="M100.594355,123.587063 C95.217951,125.769995 93.092396,132.560247 94.3527251,138.14816 C95.6130542,143.736074 99.4090454,148.392669 103.110012,152.822593 L113.48272,165.289455 C116.348469,168.738785 119.484288,172.370436 123.855429,173.572773 C130.247098,175.331931 136.638767,171.320854 142.16521,167.694131 C158.66137,156.863634 176.294486,147.816831 194.758944,140.710519 C196.564415,140.020653 198.414898,139.320932 199.900286,138.089029 C202.981091,135.536525 203.846317,130.830654 202.130869,127.248279 C200.415421,123.665904 196.419377,121.335143 192.393326,121.305578 C188.367275,121.276012 184.451252,123.375175 182.03062,126.548558 C180.875318,128.061336 180.030098,129.790928 178.914806,131.328343 C176.09407,135.191592 171.692921,137.581485 167.386796,139.739779 C157.003972,144.959141 146.315704,149.566357 135.378438,153.537097 C133.377916,154.256529 131.122327,154.941467 129.236834,153.990438 C128.081533,153.404052 127.301329,152.295339 126.601146,151.211264 C123.410502,146.263042 120.872745,140.934452 119.049174,135.354203 C117.683817,131.165732 116.578529,126.602762 113.297672,123.626483 C108.646458,119.408446 100.224258,120.418607 96.738348,125.597529 C96.738348,125.597529 92.652281,131.486027 95.152934,133.949834 C97.653587,136.41364 100.594355,123.587063 100.594355,123.587063 Z" id="Path" fill="#FBBEBE"></path>
                        <path d="M382.789545,102.354526 C383.526603,104.304086 383.546796,106.439079 383.440781,108.518944 C383.309524,111.054875 382.668385,114.031838 380.295665,114.9991 C378.750873,115.615542 376.842601,115.149451 375.469453,116.081632 C373.803501,117.204257 373.884274,119.619907 374.14174,121.594525 C374.853555,127.02222 375.656241,132.650383 378.634762,137.24112 C380.235085,139.701875 382.400823,141.75167 384.596851,143.711253 C388.973761,147.630419 393.774732,151.459374 399.52479,152.767434 C400.461432,153.029563 401.446821,153.070752 402.402344,152.887715 C403.344519,152.59877 404.199705,152.082148 404.891175,151.384198 C408.223079,148.347095 409.939514,144.011956 412.160784,140.082766 C413.730817,137.27119 415.603751,134.569873 416.487211,131.472629 C417.971417,125.952397 416.175663,120.074051 411.852835,116.302147 C410.868409,115.46519 409.777968,114.763549 408.823831,113.896521 C406.329952,111.65127 404.87603,108.428733 404.280326,105.141043 C403.684622,101.853354 403.775492,98.470442 404.063247,95.1176003 C399.014908,94.7316977 394.001907,95.338116 389.074728,96.3154017 C386.883748,96.7514215 383.799213,96.9518904 381.815215,97.9893168 C379.583849,99.1670713 382.178696,100.6756 382.789545,102.354526 Z" id="Path" fill="#FBBEBE"></path>
                        <path d="M382.789545,102.354526 C383.526603,104.304086 383.546796,106.439079 383.440781,108.518944 C383.309524,111.054875 382.668385,114.031838 380.295665,114.9991 C378.750873,115.615542 376.842601,115.149451 375.469453,116.081632 C373.803501,117.204257 373.884274,119.619907 374.14174,121.594525 C374.853555,127.02222 375.656241,132.650383 378.634762,137.24112 C380.235085,139.701875 382.400823,141.75167 384.596851,143.711253 C388.973761,147.630419 393.774732,151.459374 399.52479,152.767434 C400.461432,153.029563 401.446821,153.070752 402.402344,152.887715 C403.344519,152.59877 404.199705,152.082148 404.891175,151.384198 C408.223079,148.347095 409.939514,144.011956 412.160784,140.082766 C413.730817,137.27119 415.603751,134.569873 416.487211,131.472629 C417.971417,125.952397 416.175663,120.074051 411.852835,116.302147 C410.868409,115.46519 409.777968,114.763549 408.823831,113.896521 C406.329952,111.65127 404.87603,108.428733 404.280326,105.141043 C403.684622,101.853354 403.775492,98.470442 404.063247,95.1176003 C399.014908,94.7316977 394.001907,95.338116 389.074728,96.3154017 C386.883748,96.7514215 383.799213,96.9518904 381.815215,97.9893168 C379.583849,99.1670713 382.178696,100.6756 382.789545,102.354526 Z" id="Path" fill="#000000" opacity="0.1"></path>
                        <path d="M354.140802,117.019981 C345.945921,114.230715 342.030141,103.334051 333.451757,102.112182 C332.0994,101.916883 330.71172,101.991998 329.384594,101.681523 C324.444453,100.519746 322.320042,94.8510771 320.891993,90.0186866 C316.078006,73.9090493 309.790555,58.1449405 300.858943,43.8630985 C297.0895,37.8539084 291.130046,32.9163571 288.410193,26.3362939 C287.784476,24.8339964 287.466571,23.1213772 286.341289,21.9345621 C285.216007,20.747747 282.809013,20.5774867 282.198434,22.0897995 C282.028135,22.6255031 281.990061,23.1939766 282.087419,23.7473345 L282.677814,29.9818693 L272.41403,29.0654678 C271.464579,28.9047829 270.490092,28.9734906 269.573071,29.2657741 C268.582788,29.7575496 267.793383,30.5727706 267.337644,31.5743047 C263.865922,38.0492071 267.564719,46.5321805 273.690695,50.6284451 C280.846077,55.410759 291.064446,56.1368694 295.81788,63.2727828 C298.643701,67.5192771 298.699208,72.9826325 300.561222,77.7248851 C301.449337,79.9933544 302.746187,82.0765403 303.780639,84.2749024 C305.753668,88.4663125 306.76289,93.0232817 308.29186,97.3899599 C310.481871,103.63451 313.726519,109.453409 316.961075,115.237255 C319.453852,119.704086 322.007183,124.25104 325.842226,127.666263 C328.36528,129.909694 331.332391,131.572237 334.299503,133.174687 C341.596176,137.130738 350.199791,140.936558 357.930429,137.901917 C358.374486,131.061455 356.643671,123.434792 354.140802,117.019981 Z" id="Path" fill="#FBBEBE"></path>
                        <path d="M379.923427,333.136762 C379.299561,339.713445 375.282469,345.670257 374.344134,352 C368.15619,351.037436 362.064615,349.797693 356.170852,348.386604 C355.445544,348.215257 354.725308,348.038871 354,347.882643 C357.337432,338.811356 354.431127,328.651514 355.31367,318.990593 C355.399896,318.063306 355.521626,317.136019 355.683932,316.218811 C363.327565,313.628454 370.230673,310.171286 378.244567,311.179207 C378.401802,312.79188 378.564109,314.409593 378.721343,316.022266 C379.042575,319.244253 379.360426,322.46288 379.674895,325.678148 C379.996563,328.150819 380.079785,330.648366 379.923427,333.136762 L379.923427,333.136762 Z" id="Path" fill="#FBBEBE"></path>
                        <path d="M431,348.943926 C428.086195,349.855404 425.093638,350.650414 421.968188,351.30364 C421.446459,351.415042 420.919808,351.521381 420.393158,351.622657 C417.193878,352.240436 413.955223,352.691111 410.682114,353 C410.34742,345.961371 405.760145,339.489882 405.090757,332.263894 C404.95377,330.468147 404.971889,328.663439 405.144899,326.870987 C405.203962,326.16206 405.27287,325.453134 405.336856,324.744207 L406.724851,310.175763 C407.829807,310.032713 408.943782,309.976849 410.057024,310.008659 C416.455583,310.165635 422.278272,313.016534 428.617767,315.239525 C429.090258,318.313096 429.255186,321.428408 429.109964,324.536593 C428.868788,332.446189 427.633373,340.451997 430.488115,347.708368 C430.65054,348.118533 430.827731,348.528698 431,348.943926 Z" id="Path" fill="#FBBEBE"></path>
                        <path d="M345.280807,239.40499 C346.163599,246.347175 342.647566,252.994164 341.12412,259.819288 C340.115215,264.333743 339.979013,268.980528 339.842811,273.612044 L339.045776,301.355334 C338.965064,304.129154 338.89444,306.95387 339.731831,309.61572 C341.416702,314.949597 346.607517,318.553019 352.010202,319.835592 C357.412886,321.118166 363.062753,320.4667 368.566328,319.733801 C371.265148,319.372441 374.079992,318.950006 376.314716,317.377326 C379.386831,315.214256 380.728674,311.361445 381.888915,307.768203 L385.16281,297.624674 C388.93107,306.185344 387.337,315.545078 389.596947,324.629975 C389.742023,325.469963 390.088373,326.26145 390.605851,326.935554 C391.559266,328.004365 393.128113,328.172321 394.555713,328.274113 C404.44298,328.976475 414.466448,329.673747 424.192289,327.765155 C426.865887,327.256197 429.655508,326.431686 431.501804,324.406034 C433.650771,322.049559 434.024066,318.583556 433.998843,315.382212 C433.862641,304.383633 429.922868,293.771863 429.045121,282.808912 C428.666782,278.111231 428.853429,273.388103 428.68696,268.675154 C428.555983,265.130567 428.227571,261.596215 427.703278,258.088831 C427.536675,256.482193 427.09996,254.915942 426.41188,253.457315 C424.898523,250.607151 421.755784,249.05992 418.779516,247.858779 C395.655419,238.381985 370.220932,238.473597 345.280807,239.40499 Z" id="Path" fill="#FD566F"></path>
                        <circle id="Oval" fill="#FBBEBE" cx="388.5" cy="83.5" r="21.5"></circle>
                        <path d="M408.552801,120.783782 C406.95062,124.311225 404.429318,127.838668 400.677501,128.735646 C397.227034,129.567115 393.570645,127.899138 391.029253,125.414811 C388.487861,122.930483 386.82541,119.705392 385.062507,116.61636 C383.776744,114.358797 382.345328,112.081077 380.17058,110.660021 C377.197252,108.724967 373.360052,108.775359 369.854338,109.344789 C366.348624,109.914219 362.868022,110.932138 359.30706,110.700335 C354.872181,110.403022 350.351919,108.180733 346.168166,109.662259 C347.524245,115.749617 347.037061,122.44168 346.881363,128.680215 C346.907708,129.643517 346.771868,130.604373 346.479562,131.522326 C346.114375,132.378246 345.621555,133.173456 345.01801,133.880674 L341,139.076093 C345.309316,142.311262 349.036021,146.534115 350.542775,151.719456 C351.39158,154.67243 351.130409,157.806815 351.100274,160.880729 C351.004846,169.905944 352.958604,178.895884 352.340835,187.900942 C351.617593,198.447996 347.418772,208.415542 345.254069,218.761028 C343.399901,227.642232 343.050128,236.773371 344.219431,245.771162 C366.730335,253.586967 389.9243,257.588095 413.720967,258.898288 C417.924811,259.130092 422.465162,259.165366 425.915629,256.741509 C428.783484,254.725827 430.390688,251.273973 430.938142,247.796922 C431.485596,244.319871 431.108908,240.78235 430.727197,237.285142 C429.692559,227.828236 428.659595,218.371329 427.628306,208.914423 C427.040672,203.532553 426.453038,198.120448 426.834749,192.72346 C427.121032,188.692097 427.944724,184.736322 428.763394,180.790625 L433.785907,156.57221 C434.504126,153.130433 435.227368,149.663461 436.648739,146.453488 C437.813963,143.833102 439.426189,141.414284 440.711953,138.864446 C442.244636,135.807121 443.301573,132.532305 443.846001,129.1539 C444.064124,128.173299 444.050363,127.155077 443.805821,126.18077 C443.268412,124.527911 441.62605,123.535188 440.094183,122.723876 C430.7531,117.798448 420.741989,114.275444 410.380996,112.267527 C409.677844,115.235618 409.813452,118.017259 408.552801,120.783782 Z" id="Path" fill="#E3E8F4"></path>
                        <path d="M406.781298,106.955775 C409.255291,102.248292 413.881656,98.9461751 416.568412,94.3467973 C419.582067,89.0548419 419.807371,82.6357736 417.172066,77.1482694 C416.227001,75.231862 414.945473,73.4726982 414.203275,71.4678413 C413.376962,69.1878079 413.297794,66.6768228 412.342833,64.445928 C411.031617,61.3895039 408.191474,59.1880923 405.098984,57.9203151 C402.006493,56.6525379 398.666604,56.1955485 395.33661,55.7533006 L384.094789,54.2496579 C382.466902,54.0334478 380.77964,53.8172377 379.196285,54.2496579 C377.612929,54.682078 376.13843,55.9645968 376.009782,57.596 C375.856395,59.527149 377.56345,61.3256237 377.167611,63.2223756 C377.024119,63.8906613 376.628281,64.5687746 376.855888,65.2174048 C377.058643,65.6507027 377.409178,65.9988211 377.845485,66.2001779 C380.512448,67.6743374 383.69895,67.8070118 386.588573,68.7701293 C389.478196,69.7332469 392.377715,72.1508685 392.085784,75.158154 C391.927449,76.7748156 390.878476,78.4553575 391.590986,79.9049477 C392.273808,81.2464329 394.064978,81.4921261 395.494946,81.9098047 C400.121311,83.2414621 403.367189,88.2241214 402.694263,92.9660012 C402.486448,94.4401607 401.952066,95.85044 401.84321,97.3295134 C401.482007,102.508727 402.303372,103.987801 406.563587,107 L406.781298,106.955775 Z" id="Path" fill="#3F3D56"></path>
                        <path d="M436.061762,129.672513 C436.085486,130.665906 435.897666,131.653427 435.509927,132.573947 C433.90084,135.883473 428.975586,135.67445 425.710995,137.550678 C421.647016,139.889741 420.74964,145.110332 420.378312,149.659063 C419.955411,154.80998 419.6666,160.035547 420.759955,165.086928 C421.853309,170.13831 424.483549,175.065273 428.877597,178.026428 C434.225752,181.614651 441.497591,181.739069 447.603874,179.554284 C453.710156,177.3695 458.810759,173.144255 463.23575,168.525849 C467.43382,164.146326 471.193515,159.264154 473.44727,153.705145 C473.844385,152.709799 474.195083,151.654732 473.875329,150.659386 C473.395697,149.166367 471.709249,148.489532 470.337398,147.673348 C467.134694,145.807074 464.999558,142.552292 463.890732,139.113371 C462.781905,135.67445 462.596241,132.016553 462.56014,128.408424 C462.518881,124.660945 462.508566,120.565096 460.033046,117.673616 C457.557527,114.782135 453.266625,113.970928 449.357367,114.000788 C446.15982,114.000788 437.309837,114.294415 435.128285,116.986827 C433.33869,119.226355 436.190695,126.467499 436.061762,129.672513 Z" id="Path" fill="#BE6F72"></path>
                        <path d="M436.061762,129.672513 C436.085486,130.665906 435.897666,131.653427 435.509927,132.573947 C433.90084,135.883473 428.975586,135.67445 425.710995,137.550678 C421.647016,139.889741 420.74964,145.110332 420.378312,149.659063 C419.955411,154.80998 419.6666,160.035547 420.759955,165.086928 C421.853309,170.13831 424.483549,175.065273 428.877597,178.026428 C434.225752,181.614651 441.497591,181.739069 447.603874,179.554284 C453.710156,177.3695 458.810759,173.144255 463.23575,168.525849 C467.43382,164.146326 471.193515,159.264154 473.44727,153.705145 C473.844385,152.709799 474.195083,151.654732 473.875329,150.659386 C473.395697,149.166367 471.709249,148.489532 470.337398,147.673348 C467.134694,145.807074 464.999558,142.552292 463.890732,139.113371 C462.781905,135.67445 462.596241,132.016553 462.56014,128.408424 C462.518881,124.660945 462.508566,120.565096 460.033046,117.673616 C457.557527,114.782135 453.266625,113.970928 449.357367,114.000788 C446.15982,114.000788 437.309837,114.294415 435.128285,116.986827 C433.33869,119.226355 436.190695,126.467499 436.061762,129.672513 Z" id="Path" fill="#000000" opacity="0.1"></path>
                        <path d="M407.810716,264.039158 C407.966973,264.814751 408.330119,265.532712 408.861072,266.115772 C409.35977,266.512654 409.94184,266.789453 410.562851,266.925041 C427.136258,271.82646 444.840818,269.872 462,267.871732 C459.651848,260.664661 457.288547,253.376153 456.637124,245.817889 C456.096797,239.582958 456.702772,233.09354 454.511163,227.245429 C453.86479,225.514917 416.193366,233.48036 412.476721,234.126757 C410.572951,234.45759 408.381342,234.345616 407.033049,235.867448 C405.407017,237.709934 405.270673,242.09729 405.09898,244.392762 C404.6142,251.024693 405.972593,257.702432 407.810716,264.039158 Z" id="Path" fill="#BE6F72"></path>
                        <path d="M445.917841,343.067041 C442.915647,344.454934 439.818383,345.747972 436.611038,346.906214 C434.876437,347.535259 433.105143,348.124365 431.297154,348.673531 C428.334989,349.572167 425.292766,350.355978 422.115443,351 C420.304119,346.416956 418.491128,341.832249 416.676468,337.245877 C415.340491,333.870999 414.004515,330.481145 412.888699,327.031381 C412.112545,324.675671 411.474336,322.276924 410.977302,319.847285 C409.339185,311.588885 409.765378,303.055009 412.218209,295 C419.153278,296.303022 425.933234,297.151734 432.763226,298.140234 C436.410892,298.639476 440.068566,299.228582 443.771272,299.922528 C444.061484,302.328876 444.32501,304.735223 444.56185,307.141571 C444.922113,310.855933 445.217329,314.570295 445.447497,318.284657 C445.95787,326.538795 446.114651,334.79959 445.917841,343.067041 Z" id="Path" fill="#BE6F72"></path>
                        <path d="M445.917841,343.067041 C442.915647,344.454934 439.818383,345.747972 436.611038,346.906214 C434.876437,347.535259 433.105143,348.124365 431.297154,348.673531 C428.334989,349.572167 425.292766,350.355978 422.115443,351 C420.304119,346.416956 418.491128,341.832249 416.676468,337.245877 C415.340491,333.870999 414.004515,330.481145 412.888699,327.031381 C412.112545,324.675671 411.474336,322.276924 410.977302,319.847285 C409.339185,311.588885 409.765378,303.055009 412.218209,295 C419.153278,296.303022 425.933234,297.151734 432.763226,298.140234 C436.410892,298.639476 440.068566,299.228582 443.771272,299.922528 C444.061484,302.328876 444.32501,304.735223 444.56185,307.141571 C444.922113,310.855933 445.217329,314.570295 445.447497,318.284657 C445.95787,326.538795 446.114651,334.79959 445.917841,343.067041 Z" id="Path" fill="#000000" opacity="0.1"></path>
                        <path d="M482.998607,322.063282 C483.038217,324.991457 482.226207,327.980636 481.473613,330.852891 C481.419149,331.056236 481.369637,331.254498 481.320124,331.457844 C479.529406,330.885282 477.985462,329.696817 476.948147,328.092476 C476.412414,327.222564 476.016219,326.269963 475.774694,325.271057 C473.533416,326.836817 471.272333,328.387327 468.991445,329.922585 C461.529871,334.955386 453.642488,339.952602 444.92329,344.090683 C441.952524,345.503934 438.887683,346.820596 435.713915,348 C435.053745,345.627636 434.426583,343.240021 433.83243,340.837155 C433.183117,338.36326 432.673933,335.852821 432.307437,333.318455 C431.58209,327.562142 432.144272,321.711802 433.951261,316.212015 L433.951261,316.212015 L434.174068,315.551142 C435.015327,313.105186 436.102209,310.755755 437.417154,308.540806 C438.650022,306.507351 441.091002,306.847955 443.581494,307.524079 C444.710385,307.824013 445.85413,308.184951 446.893898,308.408632 C453.365216,309.801548 460.084099,308.362879 466.699004,308.744152 C469.851401,308.905683 472.940504,309.712864 475.784597,311.11821 C478.968267,312.760225 481.533029,315.271542 482.538138,318.743666 C482.680941,319.24375 482.790126,319.753313 482.864922,320.268758 C482.948306,320.863214 482.992967,321.46272 482.998607,322.063282 Z" id="Path" fill="#BE6F72"></path>
                        <path d="M364.095925,91.2325861 C353.688489,81.1204505 341.859796,72.5504156 329.758947,64.5365481 C326.61021,62.5554741 323.580974,60.3893836 320.687091,58.0496131 C317.663139,55.5215792 315.02726,52.5536674 311.816831,50.2784369 C308.606402,48.0032064 304.634944,46.4408814 300.779405,47.1891795 C296.923866,47.9374775 293.49672,51.6385191 294.061191,55.5114671 C294.565183,58.9192568 297.619375,61.2551601 300.441731,63.2118583 C305.784046,66.917956 311.151561,70.6341659 316.96259,73.5414049 C318.981261,74.459401 320.939097,75.5064754 322.824017,76.6761669 C326.44268,79.1233037 329.078558,82.7434483 331.815235,86.1461819 C342.144618,99.0175182 354.796676,109.823375 369.110646,117.999409 C369.282003,118.10053 375.244229,105.192389 374.992233,103.518831 C374.437842,99.6711633 366.837642,93.9021899 364.095925,91.2325861 Z" id="Path" fill="#BE6F72"></path>
                        <path d="M452.08766,253.031437 C444.087476,253.532418 436.413522,256.227699 428.589,257.946067 C420.764479,259.664434 412.262401,260.330739 405,256.944103 L409.416664,287.04809 C409.662592,288.721369 409.918558,290.434726 409.552175,292.082955 C409.215906,293.656038 408.342612,295.138943 408.417896,296.747095 C408.533331,299.292081 410.927364,301.080586 413.180866,302.257893 C419.727507,305.707999 427.062096,307.394997 434.461156,307.152483 C433.914092,309.356802 433.231516,311.536073 432.679433,313.740392 C436.368352,317.693137 442.401113,317.958657 447.665977,319.211111 C451.681126,320.157967 455.445328,321.801186 459.380174,322.958454 C464.138548,324.360323 469.079439,325.047515 474.040487,324.997449 C477.388118,324.96238 480.936506,324.496468 483.536314,322.412384 C486.733377,319.842348 487.727126,315.473788 488.419739,311.435876 C488.806198,309.181459 489.162542,306.896983 488.921633,304.622526 C488.660648,302.007402 487.646823,299.532552 486.643036,297.107801 L479.767093,280.450162 C478.517378,277.444272 477.257625,274.393294 475.751944,271.49261 C470.833387,262.109224 462.672596,252.375151 452.08766,253.031437 Z" id="Path" fill="#3F3D56"></path>
                        <path d="M458.884459,149.191891 C460.106182,145.993259 463.346676,144.025038 466.759734,144.408582 C468.766174,144.688483 470.556921,145.783096 472.277443,146.852718 L481.858193,152.810612 C483.44585,153.751939 484.969073,154.7972 486.417827,155.939506 C493.02403,161.397577 495.572208,170.369406 496.299542,178.891393 C497.026877,187.413381 496.299542,196.080318 498,204.462355 C493.957024,207.801175 489.472631,210.625177 485.429655,213.958998 C483.312862,215.703382 481.170987,217.457762 479.565836,219.701968 C478.291746,221.466345 477.383832,223.485631 476.054566,225.200025 C473.878084,227.909578 470.719931,229.658057 467.261344,230.068304 C469.45338,231.337856 470.682324,233.801985 471.274224,236.256117 C471.866123,238.71025 472.026639,241.25435 472.683747,243.708483 C473.586645,247.042305 475.45765,250.086229 476.074631,253.485027 C476.506015,255.829199 476.315403,258.233349 476.470902,260.612508 C477.253414,272.923157 486.949534,283.684353 486.322521,296 C481.745885,294.342653 477.415984,292.07444 473.451211,289.257383 C471.665479,287.982834 469.939941,286.603321 468.249516,285.228807 L455.473511,274.907455 C449.258564,269.909222 442.983424,264.801028 438.042567,258.523247 C434.942617,254.584639 432.414503,250.226179 429.304522,246.297568 C426.19454,242.368957 422.367257,238.800218 417.617011,237.150801 C416.919773,238.195432 415.680797,238.920176 414.983559,239.964806 C414.860484,240.129518 414.762452,240.31141 414.692625,240.504616 C414.607898,240.970594 414.665566,241.451189 414.858156,241.884128 C415.418483,243.905707 415.754895,245.982361 415.861376,248.076939 L416.17739,251.83561 C416.295269,252.831807 416.295269,253.838354 416.17739,254.83455 C415.700861,258.048414 412.711266,260.542533 409.485914,261.042356 C409.019481,261.142773 408.535419,261.127325 408.07639,260.997372 C407.178508,260.697478 406.681915,259.752812 406.411045,258.85313 C405.141972,254.584639 407.088219,250.081231 407.243718,245.637801 C407.265501,244.51029 407.22699,243.382424 407.128347,242.258995 L406.827382,237.825562 C403.913028,237.220776 402.237651,234.101879 401.465172,231.237891 C399.378474,223.505624 397.276729,215.503452 398.485609,207.586251 C398.806639,205.467 399.368442,203.31776 398.987219,201.198509 C398.485609,198.36451 396.43904,196.065323 395.360579,193.396267 C391.849309,184.694342 399.308249,175.247681 398.616027,165.905983 C398.325093,161.98237 395.827076,158.573575 394.322246,154.934861 C393.543371,152.813991 392.534157,150.784315 391.312587,148.882001 C389.77766,146.697773 387.706011,144.948391 385.694556,143.189013 C379.48242,137.757852 373.59039,131.973588 368.047919,125.865136 C365.201464,125.570976 362.531124,124.352087 360.448529,122.396362 C359.124278,121.146804 358.035785,119.497387 358.000672,117.683028 C357.96556,115.86867 359.309874,113.964343 361.130718,113.869376 C362.194131,113.814396 363.187319,114.33921 364.225651,114.569129 C367.476084,115.278878 370.74658,112.894721 372.196233,109.900779 C373.645886,106.906837 373.645886,103.463054 373.620805,100.144228 C376.851386,99.5727593 380.147025,100.722977 382.313705,103.178155 C384.555901,105.607297 386.015586,108.636226 387.781253,111.42524 C388.499903,112.664372 389.422321,113.774427 390.510011,114.709079 C392.922755,116.618405 396.398911,116.978277 398.505673,119.207489 C399.574102,120.347087 400.166002,121.856553 401.144141,123.076122 C403.892963,126.509908 408.924111,126.92976 412.681169,129.188961 C416.438228,131.448163 419.051615,135.576704 423.214977,136.91623 C424.719807,137.416053 426.360072,137.48103 427.849853,138.035834 C431.290897,139.310384 433.392643,142.954096 433.869172,146.577815 C434.345702,150.201534 433.533093,153.865239 432.710453,157.433978 L430.779255,165.786026 C430.352887,167.635372 430.02684,169.859586 431.396235,171.179119 C432.04329,171.712609 432.802891,172.09362 433.618367,172.293725 C437.129637,173.433323 441.042194,174.552927 444.342787,172.938498 C445.902794,172.16877 447.126722,170.869229 448.245312,169.539699 C453.141025,163.791731 456.396473,156.264391 458.884459,149.191891 Z" id="Path" fill="#008489"></path>
                        <path d="M498.786369,319.604002 C498.116,324.232558 495.667695,328.785236 491.660054,330.90476 C489.257068,332.138576 486.484419,332.338448 483.941093,331.461199 C482.184202,330.891465 480.669423,329.708869 479.651702,328.112451 C479.126089,327.246835 478.737378,326.298939 478.500416,325.304967 C478.500416,325.254381 478.476127,325.198737 478.466412,325.148152 C478.101352,323.358379 477.949617,321.52856 478.014641,319.700114 C478.013541,316.861462 478.175757,314.02529 478.500416,311.206841 C478.771451,308.833705 479.219722,306.486181 479.841154,304.1856 C480.744695,300.902614 482.046572,297.741032 483.241577,294.574392 C483.863369,292.905076 484.460872,291.230703 484.951505,289.515861 L484.951505,289.515861 C485.247827,288.504155 485.50043,287.462097 485.704455,286.409923 L485.777322,286.030533 C485.816184,285.818075 485.850188,285.605616 485.884192,285.393158 C486.369967,282.509795 486.510841,279.525262 487.759283,276.920119 C490.673931,270.804355 496.34778,272.367441 497.212459,278.007703 C497.277882,278.444715 497.315208,278.885788 497.324187,279.32798 C497.455346,286.465567 494.735008,293.441281 495.978591,300.60416 C496.329347,302.350942 496.770425,304.076728 497.299898,305.773979 C497.737096,307.337065 498.130573,308.920385 498.431754,310.523939 C499.04181,313.508018 499.161713,316.578192 498.786369,319.604002 L498.786369,319.604002 Z" id="Path" fill="#BE6F72"></path>
                        <path d="M501.42272,240.205002 C501.558202,243.104267 501.42272,246.038645 502.004789,248.882734 C503.364624,255.604214 508.52798,261.553225 507.955947,268.385058 C507.815447,270.05038 507.198253,271.841103 505.74308,272.663732 C504.287906,273.486361 501.879343,273.421152 501.402649,275.076442 C501.267167,275.537917 501.337417,276.03952 501.186882,276.495978 C500.870758,277.469088 499.68153,277.885419 498.677962,277.860339 C497.674394,277.835258 496.670826,277.5042 495.632133,277.589473 C491.9942,277.895451 490.659455,282.761 487.417931,284.431338 C485.235171,285.554929 482.400091,284.932941 480.598687,283.272635 C478.797283,281.612329 478.009482,279.024058 478.149981,276.571219 C478.255356,274.720304 478.842443,272.934597 479.153549,271.108762 C479.720565,267.853359 479.424513,264.517699 479.12846,261.227183 C478.691908,256.406779 478.240303,251.526181 476.654665,246.956578 C475.907007,244.799685 474.913475,242.738097 474.266174,240.551108 C473.342891,237.456217 473.132142,234.200814 473.036803,230.975507 C472.841108,224.188818 473.307767,216.930623 477.362181,211.473182 C480.408009,207.380102 484.773529,204.054474 488.220785,200.267371 C490.378456,197.894789 491.000668,197.152417 493.384141,199.163845 C495.346117,200.814119 497.398413,203.091396 497.619198,205.328546 C498.221339,211.061868 497.619198,216.699885 498.693015,222.538544 C499.766833,228.377203 501.141721,234.210846 501.42272,240.205002 Z" id="Path" fill="#008489"></path>
                        <circle id="Oval" fill="#BE6F72" cx="448.5" cy="104.5" r="25.5"></circle>
                        <path d="M472.435923,153.377528 C472.999453,152.591066 473.668646,151.744493 474.624635,151.579186 C475.346439,151.524977 476.068853,151.676118 476.707685,152.014996 L483.46502,154.825217 C485.291031,151.822943 486.367661,148.428668 486.60469,144.926826 C486.745573,142.777833 486.574501,140.598784 486.987086,138.484856 C487.600932,135.34903 489.467627,132.538808 489.900338,129.372926 C490.242481,126.818179 489.623604,124.248404 489.251271,121.698667 C488.104084,113.824035 489.336807,105.789106 488.677678,97.8593718 C488.018548,89.9296379 484.823531,81.4338523 477.719021,77.7920857 C475.706412,76.7902242 473.537826,76.1891073 471.444713,75.3976367 C466.780491,73.6293511 462.599296,70.7990923 457.990421,68.8855368 C453.381546,66.9719813 447.967628,66.0953525 443.499636,68.2944385 C439.031644,70.4935245 436.430346,76.6800194 439.333535,80.7175213 C440.289524,82.0449878 441.688288,82.9867376 443.026673,83.9435154 C445.748726,85.8821174 448.526127,88.2765664 449.155067,91.5526536 C450.282128,97.4486086 444.123545,102.072199 442.387669,107.837912 C441.746822,110.08955 441.689696,112.466169 442.221629,114.745748 C442.971326,118.162095 444.8028,121.388089 444.73739,124.884586 C444.687075,128.716706 442.382638,132.188157 441.949927,136.00024 C441.79395,137.397836 441.889549,138.81547 441.713445,140.208058 C441.403362,142.045073 440.85715,143.834732 440.088263,145.532952 C436.063045,155.551567 431.98248,165.675378 426,174.682113 C432.404929,174.790303 438.737023,173.3171 444.430467,170.394145 C443.6123,174.255442 442.045033,177.92064 439.816561,181.184194 C444.935732,180.594269 449.860292,178.883585 454.236905,176.174886 C453.17496,179.960932 451.636536,183.598136 449.65822,187 C449.829291,186.70946 452.994119,185.998138 453.577776,185.667524 C454.777525,184.98835 455.742372,183.963142 456.345113,182.727061 C458.055831,179.681402 459.122514,176.009579 460.707443,172.843697 C464.096098,166.05769 468.017784,159.54873 472.435923,153.377528 L472.435923,153.377528 Z" id="Path" fill="#3F3D56"></path>
                        <path d="M278.448935,0.00208941797 C277.195743,0.123410603 275.93468,0.151668669 274.676965,0.0866121892 C274.230924,0.0397802455 273.828093,0.345024778 273.771486,0.772738215 L271.365497,18.1148221 C271.180402,19.3736948 270.644002,20.5609106 269.813246,21.5504242 C268.428843,23.1421529 267.793676,25.21443 268.059203,27.273113 L268.059203,56.7317847 C268.059203,56.7317847 267.903978,60.6596076 271.044699,60.6596076 C274.803614,61.1134641 278.606865,61.1134641 282.365781,60.6596076 C282.365781,60.6596076 284.880427,60.2021903 284.880427,56.577655 L284.880427,27.5714286 C285.268675,25.5232217 284.701137,23.4145176 283.328176,21.8039925 C282.525234,20.810877 282.006205,19.633435 281.822493,18.3882781 L279.323369,0.683243516 C279.264458,0.270121965 278.881747,-0.0279962999 278.448935,0.00208941797 Z" id="Path" fill="#3F3D56"></path>
                        <rect id="Rectangle" fill="#FD566F" x="269" y="28" width="14" height="25" rx="7"></rect>
                        <path d="M313.448935,26.0020894 C312.195743,26.1234106 310.93468,26.1516687 309.676965,26.0866122 C309.230924,26.0397802 308.828093,26.3450248 308.771486,26.7727382 L306.365497,44.1148221 C306.180402,45.3736948 305.644002,46.5609106 304.813246,47.5504242 C303.428843,49.1421529 302.793676,51.21443 303.059203,53.273113 L303.059203,82.7317847 C303.059203,82.7317847 302.903978,86.6596076 306.044699,86.6596076 C309.803614,87.1134641 313.606865,87.1134641 317.365781,86.6596076 C317.365781,86.6596076 319.880427,86.2021903 319.880427,82.577655 L319.880427,53.5714286 C320.268675,51.5232217 319.701137,49.4145176 318.328176,47.8039925 C317.525234,46.810877 317.006205,45.633435 316.822493,44.3882781 L314.323369,26.6832435 C314.264458,26.270122 313.881747,25.9720037 313.448935,26.0020894 Z" id="Path" fill="#3F3D56"></path>
                        <rect id="Rectangle" fill="#FD566F" x="304" y="53" width="14" height="25" rx="7"></rect>
                    </g>
                </g>
            </g>
        </g>
    </g>
</svg>